%TF.GenerationSoftware,KiCad,Pcbnew,9.0.7*%
%TF.CreationDate,2026-03-04T14:21:47+05:30*%
%TF.ProjectId,XeonPad,58656f6e-5061-4642-9e6b-696361645f70,rev?*%
%TF.SameCoordinates,Original*%
%TF.FileFunction,Soldermask,Bot*%
%TF.FilePolarity,Negative*%
%FSLAX46Y46*%
G04 Gerber Fmt 4.6, Leading zero omitted, Abs format (unit mm)*
G04 Created by KiCad (PCBNEW 9.0.7) date 2026-03-04 14:21:47*
%MOMM*%
%LPD*%
G01*
G04 APERTURE LIST*
G04 APERTURE END LIST*
G36*
X135899381Y-66993400D02*
G01*
X135925984Y-67011175D01*
X135943759Y-67037778D01*
X135950001Y-67069158D01*
X135950001Y-67725158D01*
X135943759Y-67756538D01*
X135925984Y-67783141D01*
X135899381Y-67800916D01*
X135868001Y-67807158D01*
X134432001Y-67807158D01*
X134400621Y-67800916D01*
X134374018Y-67783141D01*
X134356243Y-67756538D01*
X134350001Y-67725158D01*
X134350001Y-67069158D01*
X134356243Y-67037778D01*
X134374018Y-67011175D01*
X134400621Y-66993400D01*
X134432001Y-66987158D01*
X135868001Y-66987158D01*
X135899381Y-66993400D01*
G37*
G36*
X141099381Y-66993400D02*
G01*
X141125984Y-67011175D01*
X141143759Y-67037778D01*
X141150001Y-67069158D01*
X141150001Y-67725158D01*
X141143759Y-67756538D01*
X141125984Y-67783141D01*
X141099381Y-67800916D01*
X141068001Y-67807158D01*
X139632001Y-67807158D01*
X139600621Y-67800916D01*
X139574018Y-67783141D01*
X139556243Y-67756538D01*
X139550001Y-67725158D01*
X139550001Y-67069158D01*
X139556243Y-67037778D01*
X139574018Y-67011175D01*
X139600621Y-66993400D01*
X139632001Y-66987158D01*
X141068001Y-66987158D01*
X141099381Y-66993400D01*
G37*
G36*
X143649381Y-66993400D02*
G01*
X143675984Y-67011175D01*
X143693759Y-67037778D01*
X143700001Y-67069158D01*
X143700001Y-67725158D01*
X143693759Y-67756538D01*
X143675984Y-67783141D01*
X143649381Y-67800916D01*
X143618001Y-67807158D01*
X142182001Y-67807158D01*
X142150621Y-67800916D01*
X142124018Y-67783141D01*
X142106243Y-67756538D01*
X142100001Y-67725158D01*
X142100001Y-67069158D01*
X142106243Y-67037778D01*
X142124018Y-67011175D01*
X142150621Y-66993400D01*
X142182001Y-66987158D01*
X143618001Y-66987158D01*
X143649381Y-66993400D01*
G37*
G36*
X148849381Y-66993400D02*
G01*
X148875984Y-67011175D01*
X148893759Y-67037778D01*
X148900001Y-67069158D01*
X148900001Y-67725158D01*
X148893759Y-67756538D01*
X148875984Y-67783141D01*
X148849381Y-67800916D01*
X148818001Y-67807158D01*
X147382001Y-67807158D01*
X147350621Y-67800916D01*
X147324018Y-67783141D01*
X147306243Y-67756538D01*
X147300001Y-67725158D01*
X147300001Y-67069158D01*
X147306243Y-67037778D01*
X147324018Y-67011175D01*
X147350621Y-66993400D01*
X147382001Y-66987158D01*
X148818001Y-66987158D01*
X148849381Y-66993400D01*
G37*
G36*
X202149381Y-66993400D02*
G01*
X202175984Y-67011175D01*
X202193759Y-67037778D01*
X202200001Y-67069158D01*
X202200001Y-67725158D01*
X202193759Y-67756538D01*
X202175984Y-67783141D01*
X202149381Y-67800916D01*
X202118001Y-67807158D01*
X200682001Y-67807158D01*
X200650621Y-67800916D01*
X200624018Y-67783141D01*
X200606243Y-67756538D01*
X200600001Y-67725158D01*
X200600001Y-67069158D01*
X200606243Y-67037778D01*
X200624018Y-67011175D01*
X200650621Y-66993400D01*
X200682001Y-66987158D01*
X202118001Y-66987158D01*
X202149381Y-66993400D01*
G37*
G36*
X207349381Y-66993400D02*
G01*
X207375984Y-67011175D01*
X207393759Y-67037778D01*
X207400001Y-67069158D01*
X207400001Y-67725158D01*
X207393759Y-67756538D01*
X207375984Y-67783141D01*
X207349381Y-67800916D01*
X207318001Y-67807158D01*
X205882001Y-67807158D01*
X205850621Y-67800916D01*
X205824018Y-67783141D01*
X205806243Y-67756538D01*
X205800001Y-67725158D01*
X205800001Y-67069158D01*
X205806243Y-67037778D01*
X205824018Y-67011175D01*
X205850621Y-66993400D01*
X205882001Y-66987158D01*
X207318001Y-66987158D01*
X207349381Y-66993400D01*
G37*
G36*
X209899381Y-66993400D02*
G01*
X209925984Y-67011175D01*
X209943759Y-67037778D01*
X209950001Y-67069158D01*
X209950001Y-67725158D01*
X209943759Y-67756538D01*
X209925984Y-67783141D01*
X209899381Y-67800916D01*
X209868001Y-67807158D01*
X208432001Y-67807158D01*
X208400621Y-67800916D01*
X208374018Y-67783141D01*
X208356243Y-67756538D01*
X208350001Y-67725158D01*
X208350001Y-67069158D01*
X208356243Y-67037778D01*
X208374018Y-67011175D01*
X208400621Y-66993400D01*
X208432001Y-66987158D01*
X209868001Y-66987158D01*
X209899381Y-66993400D01*
G37*
G36*
X215099381Y-66993400D02*
G01*
X215125984Y-67011175D01*
X215143759Y-67037778D01*
X215150001Y-67069158D01*
X215150001Y-67725158D01*
X215143759Y-67756538D01*
X215125984Y-67783141D01*
X215099381Y-67800916D01*
X215068001Y-67807158D01*
X213632001Y-67807158D01*
X213600621Y-67800916D01*
X213574018Y-67783141D01*
X213556243Y-67756538D01*
X213550001Y-67725158D01*
X213550001Y-67069158D01*
X213556243Y-67037778D01*
X213574018Y-67011175D01*
X213600621Y-66993400D01*
X213632001Y-66987158D01*
X215068001Y-66987158D01*
X215099381Y-66993400D01*
G37*
G36*
X135899381Y-65493400D02*
G01*
X135925984Y-65511175D01*
X135943759Y-65537778D01*
X135950001Y-65569158D01*
X135950001Y-66225158D01*
X135943759Y-66256538D01*
X135925984Y-66283141D01*
X135899381Y-66300916D01*
X135868001Y-66307158D01*
X134432001Y-66307158D01*
X134400621Y-66300916D01*
X134374018Y-66283141D01*
X134356243Y-66256538D01*
X134350001Y-66225158D01*
X134350001Y-65569158D01*
X134356243Y-65537778D01*
X134374018Y-65511175D01*
X134400621Y-65493400D01*
X134432001Y-65487158D01*
X135868001Y-65487158D01*
X135899381Y-65493400D01*
G37*
G36*
X141099381Y-65493400D02*
G01*
X141125984Y-65511175D01*
X141143759Y-65537778D01*
X141150001Y-65569158D01*
X141150001Y-66225158D01*
X141143759Y-66256538D01*
X141125984Y-66283141D01*
X141099381Y-66300916D01*
X141068001Y-66307158D01*
X139632001Y-66307158D01*
X139600621Y-66300916D01*
X139574018Y-66283141D01*
X139556243Y-66256538D01*
X139550001Y-66225158D01*
X139550001Y-65569158D01*
X139556243Y-65537778D01*
X139574018Y-65511175D01*
X139600621Y-65493400D01*
X139632001Y-65487158D01*
X141068001Y-65487158D01*
X141099381Y-65493400D01*
G37*
G36*
X143649381Y-65493400D02*
G01*
X143675984Y-65511175D01*
X143693759Y-65537778D01*
X143700001Y-65569158D01*
X143700001Y-66225158D01*
X143693759Y-66256538D01*
X143675984Y-66283141D01*
X143649381Y-66300916D01*
X143618001Y-66307158D01*
X142182001Y-66307158D01*
X142150621Y-66300916D01*
X142124018Y-66283141D01*
X142106243Y-66256538D01*
X142100001Y-66225158D01*
X142100001Y-65569158D01*
X142106243Y-65537778D01*
X142124018Y-65511175D01*
X142150621Y-65493400D01*
X142182001Y-65487158D01*
X143618001Y-65487158D01*
X143649381Y-65493400D01*
G37*
G36*
X148849381Y-65493400D02*
G01*
X148875984Y-65511175D01*
X148893759Y-65537778D01*
X148900001Y-65569158D01*
X148900001Y-66225158D01*
X148893759Y-66256538D01*
X148875984Y-66283141D01*
X148849381Y-66300916D01*
X148818001Y-66307158D01*
X147382001Y-66307158D01*
X147350621Y-66300916D01*
X147324018Y-66283141D01*
X147306243Y-66256538D01*
X147300001Y-66225158D01*
X147300001Y-65569158D01*
X147306243Y-65537778D01*
X147324018Y-65511175D01*
X147350621Y-65493400D01*
X147382001Y-65487158D01*
X148818001Y-65487158D01*
X148849381Y-65493400D01*
G37*
G36*
X202149381Y-65493400D02*
G01*
X202175984Y-65511175D01*
X202193759Y-65537778D01*
X202200001Y-65569158D01*
X202200001Y-66225158D01*
X202193759Y-66256538D01*
X202175984Y-66283141D01*
X202149381Y-66300916D01*
X202118001Y-66307158D01*
X200682001Y-66307158D01*
X200650621Y-66300916D01*
X200624018Y-66283141D01*
X200606243Y-66256538D01*
X200600001Y-66225158D01*
X200600001Y-65569158D01*
X200606243Y-65537778D01*
X200624018Y-65511175D01*
X200650621Y-65493400D01*
X200682001Y-65487158D01*
X202118001Y-65487158D01*
X202149381Y-65493400D01*
G37*
G36*
X207349381Y-65493400D02*
G01*
X207375984Y-65511175D01*
X207393759Y-65537778D01*
X207400001Y-65569158D01*
X207400001Y-66225158D01*
X207393759Y-66256538D01*
X207375984Y-66283141D01*
X207349381Y-66300916D01*
X207318001Y-66307158D01*
X205882001Y-66307158D01*
X205850621Y-66300916D01*
X205824018Y-66283141D01*
X205806243Y-66256538D01*
X205800001Y-66225158D01*
X205800001Y-65569158D01*
X205806243Y-65537778D01*
X205824018Y-65511175D01*
X205850621Y-65493400D01*
X205882001Y-65487158D01*
X207318001Y-65487158D01*
X207349381Y-65493400D01*
G37*
G36*
X209899381Y-65493400D02*
G01*
X209925984Y-65511175D01*
X209943759Y-65537778D01*
X209950001Y-65569158D01*
X209950001Y-66225158D01*
X209943759Y-66256538D01*
X209925984Y-66283141D01*
X209899381Y-66300916D01*
X209868001Y-66307158D01*
X208432001Y-66307158D01*
X208400621Y-66300916D01*
X208374018Y-66283141D01*
X208356243Y-66256538D01*
X208350001Y-66225158D01*
X208350001Y-65569158D01*
X208356243Y-65537778D01*
X208374018Y-65511175D01*
X208400621Y-65493400D01*
X208432001Y-65487158D01*
X209868001Y-65487158D01*
X209899381Y-65493400D01*
G37*
G36*
X215099381Y-65493400D02*
G01*
X215125984Y-65511175D01*
X215143759Y-65537778D01*
X215150001Y-65569158D01*
X215150001Y-66225158D01*
X215143759Y-66256538D01*
X215125984Y-66283141D01*
X215099381Y-66300916D01*
X215068001Y-66307158D01*
X213632001Y-66307158D01*
X213600621Y-66300916D01*
X213574018Y-66283141D01*
X213556243Y-66256538D01*
X213550001Y-66225158D01*
X213550001Y-65569158D01*
X213556243Y-65537778D01*
X213574018Y-65511175D01*
X213600621Y-65493400D01*
X213632001Y-65487158D01*
X215068001Y-65487158D01*
X215099381Y-65493400D01*
G37*
G36*
X111496742Y-61061601D02*
G01*
X111650687Y-61125367D01*
X111789234Y-61217941D01*
X111907059Y-61335766D01*
X111999633Y-61474313D01*
X112063399Y-61628258D01*
X112095907Y-61791685D01*
X112100000Y-61875000D01*
X112100000Y-63875000D01*
X112095907Y-63958315D01*
X112063399Y-64121742D01*
X111999633Y-64275687D01*
X111907059Y-64414234D01*
X111789234Y-64532059D01*
X111650687Y-64624633D01*
X111496742Y-64688399D01*
X111333315Y-64720907D01*
X111166685Y-64720907D01*
X111003258Y-64688399D01*
X110849313Y-64624633D01*
X110710766Y-64532059D01*
X110592941Y-64414234D01*
X110500367Y-64275687D01*
X110436601Y-64121742D01*
X110404093Y-63958315D01*
X110400000Y-63875000D01*
X110400000Y-61875000D01*
X110404093Y-61791685D01*
X110436601Y-61628258D01*
X110500367Y-61474313D01*
X110592941Y-61335766D01*
X110710766Y-61217941D01*
X110849313Y-61125367D01*
X111003258Y-61061601D01*
X111166685Y-61029093D01*
X111333315Y-61029093D01*
X111496742Y-61061601D01*
G37*
G36*
X114036742Y-61061601D02*
G01*
X114190687Y-61125367D01*
X114329234Y-61217941D01*
X114447059Y-61335766D01*
X114539633Y-61474313D01*
X114603399Y-61628258D01*
X114635907Y-61791685D01*
X114640000Y-61875000D01*
X114640000Y-63875000D01*
X114635907Y-63958315D01*
X114603399Y-64121742D01*
X114539633Y-64275687D01*
X114447059Y-64414234D01*
X114329234Y-64532059D01*
X114190687Y-64624633D01*
X114036742Y-64688399D01*
X113873315Y-64720907D01*
X113706685Y-64720907D01*
X113543258Y-64688399D01*
X113389313Y-64624633D01*
X113250766Y-64532059D01*
X113132941Y-64414234D01*
X113040367Y-64275687D01*
X112976601Y-64121742D01*
X112944093Y-63958315D01*
X112940000Y-63875000D01*
X112940000Y-61875000D01*
X112944093Y-61791685D01*
X112976601Y-61628258D01*
X113040367Y-61474313D01*
X113132941Y-61335766D01*
X113250766Y-61217941D01*
X113389313Y-61125367D01*
X113543258Y-61061601D01*
X113706685Y-61029093D01*
X113873315Y-61029093D01*
X114036742Y-61061601D01*
G37*
G36*
X116576742Y-61061601D02*
G01*
X116730687Y-61125367D01*
X116869234Y-61217941D01*
X116987059Y-61335766D01*
X117079633Y-61474313D01*
X117143399Y-61628258D01*
X117175907Y-61791685D01*
X117180000Y-61875000D01*
X117180000Y-63875000D01*
X117175907Y-63958315D01*
X117143399Y-64121742D01*
X117079633Y-64275687D01*
X116987059Y-64414234D01*
X116869234Y-64532059D01*
X116730687Y-64624633D01*
X116576742Y-64688399D01*
X116413315Y-64720907D01*
X116246685Y-64720907D01*
X116083258Y-64688399D01*
X115929313Y-64624633D01*
X115790766Y-64532059D01*
X115672941Y-64414234D01*
X115580367Y-64275687D01*
X115516601Y-64121742D01*
X115484093Y-63958315D01*
X115480000Y-63875000D01*
X115480000Y-61875000D01*
X115484093Y-61791685D01*
X115516601Y-61628258D01*
X115580367Y-61474313D01*
X115672941Y-61335766D01*
X115790766Y-61217941D01*
X115929313Y-61125367D01*
X116083258Y-61061601D01*
X116246685Y-61029093D01*
X116413315Y-61029093D01*
X116576742Y-61061601D01*
G37*
G36*
X119116742Y-61061601D02*
G01*
X119270687Y-61125367D01*
X119409234Y-61217941D01*
X119527059Y-61335766D01*
X119619633Y-61474313D01*
X119683399Y-61628258D01*
X119715907Y-61791685D01*
X119720000Y-61875000D01*
X119720000Y-63875000D01*
X119715907Y-63958315D01*
X119683399Y-64121742D01*
X119619633Y-64275687D01*
X119527059Y-64414234D01*
X119409234Y-64532059D01*
X119270687Y-64624633D01*
X119116742Y-64688399D01*
X118953315Y-64720907D01*
X118786685Y-64720907D01*
X118623258Y-64688399D01*
X118469313Y-64624633D01*
X118330766Y-64532059D01*
X118212941Y-64414234D01*
X118120367Y-64275687D01*
X118056601Y-64121742D01*
X118024093Y-63958315D01*
X118020000Y-63875000D01*
X118020000Y-61875000D01*
X118024093Y-61791685D01*
X118056601Y-61628258D01*
X118120367Y-61474313D01*
X118212941Y-61335766D01*
X118330766Y-61217941D01*
X118469313Y-61125367D01*
X118623258Y-61061601D01*
X118786685Y-61029093D01*
X118953315Y-61029093D01*
X119116742Y-61061601D01*
G37*
G36*
X121656742Y-61111601D02*
G01*
X121810687Y-61175367D01*
X121949234Y-61267941D01*
X122067059Y-61385766D01*
X122159633Y-61524313D01*
X122223399Y-61678258D01*
X122255907Y-61841685D01*
X122260000Y-61925000D01*
X122260000Y-63825000D01*
X122255907Y-63908315D01*
X122223399Y-64071742D01*
X122159633Y-64225687D01*
X122067059Y-64364234D01*
X121949234Y-64482059D01*
X121810687Y-64574633D01*
X121656742Y-64638399D01*
X121493315Y-64670907D01*
X121326685Y-64670907D01*
X121163258Y-64638399D01*
X121009313Y-64574633D01*
X120870766Y-64482059D01*
X120752941Y-64364234D01*
X120660367Y-64225687D01*
X120596601Y-64071742D01*
X120564093Y-63908315D01*
X120560000Y-63825000D01*
X120560000Y-61925000D01*
X120564093Y-61841685D01*
X120596601Y-61678258D01*
X120660367Y-61524313D01*
X120752941Y-61385766D01*
X120870766Y-61267941D01*
X121009313Y-61175367D01*
X121163258Y-61111601D01*
X121326685Y-61079093D01*
X121493315Y-61079093D01*
X121656742Y-61111601D01*
G37*
G36*
X124196742Y-61111601D02*
G01*
X124350687Y-61175367D01*
X124489234Y-61267941D01*
X124607059Y-61385766D01*
X124699633Y-61524313D01*
X124763399Y-61678258D01*
X124795907Y-61841685D01*
X124800000Y-61925000D01*
X124800000Y-63825000D01*
X124795907Y-63908315D01*
X124763399Y-64071742D01*
X124699633Y-64225687D01*
X124607059Y-64364234D01*
X124489234Y-64482059D01*
X124350687Y-64574633D01*
X124196742Y-64638399D01*
X124033315Y-64670907D01*
X123866685Y-64670907D01*
X123703258Y-64638399D01*
X123549313Y-64574633D01*
X123410766Y-64482059D01*
X123292941Y-64364234D01*
X123200367Y-64225687D01*
X123136601Y-64071742D01*
X123104093Y-63908315D01*
X123100000Y-63825000D01*
X123100000Y-61925000D01*
X123104093Y-61841685D01*
X123136601Y-61678258D01*
X123200367Y-61524313D01*
X123292941Y-61385766D01*
X123410766Y-61267941D01*
X123549313Y-61175367D01*
X123703258Y-61111601D01*
X123866685Y-61079093D01*
X124033315Y-61079093D01*
X124196742Y-61111601D01*
G37*
G36*
X126736742Y-61111601D02*
G01*
X126890687Y-61175367D01*
X127029234Y-61267941D01*
X127147059Y-61385766D01*
X127239633Y-61524313D01*
X127303399Y-61678258D01*
X127335907Y-61841685D01*
X127340000Y-61925000D01*
X127340000Y-63825000D01*
X127335907Y-63908315D01*
X127303399Y-64071742D01*
X127239633Y-64225687D01*
X127147059Y-64364234D01*
X127029234Y-64482059D01*
X126890687Y-64574633D01*
X126736742Y-64638399D01*
X126573315Y-64670907D01*
X126406685Y-64670907D01*
X126243258Y-64638399D01*
X126089313Y-64574633D01*
X125950766Y-64482059D01*
X125832941Y-64364234D01*
X125740367Y-64225687D01*
X125676601Y-64071742D01*
X125644093Y-63908315D01*
X125640000Y-63825000D01*
X125640000Y-61925000D01*
X125644093Y-61841685D01*
X125676601Y-61678258D01*
X125740367Y-61524313D01*
X125832941Y-61385766D01*
X125950766Y-61267941D01*
X126089313Y-61175367D01*
X126243258Y-61111601D01*
X126406685Y-61079093D01*
X126573315Y-61079093D01*
X126736742Y-61111601D01*
G37*
G36*
X239100000Y-61310000D02*
G01*
X235900000Y-61310000D01*
X235900000Y-59310000D01*
X239100000Y-59310000D01*
X239100000Y-61310000D01*
G37*
G36*
X186496742Y-57476601D02*
G01*
X186650687Y-57540367D01*
X186789234Y-57632941D01*
X186907059Y-57750766D01*
X186999633Y-57889313D01*
X187063399Y-58043258D01*
X187095907Y-58206685D01*
X187095907Y-58373315D01*
X187063399Y-58536742D01*
X186999633Y-58690687D01*
X186907059Y-58829234D01*
X186789234Y-58947059D01*
X186650687Y-59039633D01*
X186496742Y-59103399D01*
X186333315Y-59135907D01*
X186166685Y-59135907D01*
X186003258Y-59103399D01*
X185849313Y-59039633D01*
X185710766Y-58947059D01*
X185592941Y-58829234D01*
X185500367Y-58690687D01*
X185436601Y-58536742D01*
X185404093Y-58373315D01*
X185404093Y-58206685D01*
X185436601Y-58043258D01*
X185500367Y-57889313D01*
X185592941Y-57750766D01*
X185710766Y-57632941D01*
X185849313Y-57540367D01*
X186003258Y-57476601D01*
X186166685Y-57444093D01*
X186333315Y-57444093D01*
X186496742Y-57476601D01*
G37*
G36*
X230290285Y-56253060D02*
G01*
X230471397Y-56328079D01*
X230634393Y-56436990D01*
X230773010Y-56575607D01*
X230881921Y-56738603D01*
X230956940Y-56919715D01*
X230995185Y-57111983D01*
X230995185Y-57308017D01*
X230956940Y-57500285D01*
X230881921Y-57681397D01*
X230773010Y-57844393D01*
X230634393Y-57983010D01*
X230471397Y-58091921D01*
X230290285Y-58166940D01*
X230098017Y-58205185D01*
X229901983Y-58205185D01*
X229709715Y-58166940D01*
X229528603Y-58091921D01*
X229365607Y-57983010D01*
X229226990Y-57844393D01*
X229118079Y-57681397D01*
X229043060Y-57500285D01*
X229004815Y-57308017D01*
X229004815Y-57111983D01*
X229043060Y-56919715D01*
X229118079Y-56738603D01*
X229226990Y-56575607D01*
X229365607Y-56436990D01*
X229528603Y-56328079D01*
X229709715Y-56253060D01*
X229901983Y-56214815D01*
X230098017Y-56214815D01*
X230290285Y-56253060D01*
G37*
G36*
X244790285Y-56253060D02*
G01*
X244971397Y-56328079D01*
X245134393Y-56436990D01*
X245273010Y-56575607D01*
X245381921Y-56738603D01*
X245456940Y-56919715D01*
X245495185Y-57111983D01*
X245495185Y-57308017D01*
X245456940Y-57500285D01*
X245381921Y-57681397D01*
X245273010Y-57844393D01*
X245134393Y-57983010D01*
X244971397Y-58091921D01*
X244790285Y-58166940D01*
X244598017Y-58205185D01*
X244401983Y-58205185D01*
X244209715Y-58166940D01*
X244028603Y-58091921D01*
X243865607Y-57983010D01*
X243726990Y-57844393D01*
X243618079Y-57681397D01*
X243543060Y-57500285D01*
X243504815Y-57308017D01*
X243504815Y-57111983D01*
X243543060Y-56919715D01*
X243618079Y-56738603D01*
X243726990Y-56575607D01*
X243865607Y-56436990D01*
X244028603Y-56328079D01*
X244209715Y-56253060D01*
X244401983Y-56214815D01*
X244598017Y-56214815D01*
X244790285Y-56253060D01*
G37*
G36*
X186496742Y-54936601D02*
G01*
X186650687Y-55000367D01*
X186789234Y-55092941D01*
X186907059Y-55210766D01*
X186999633Y-55349313D01*
X187063399Y-55503258D01*
X187095907Y-55666685D01*
X187095907Y-55833315D01*
X187063399Y-55996742D01*
X186999633Y-56150687D01*
X186907059Y-56289234D01*
X186789234Y-56407059D01*
X186650687Y-56499633D01*
X186496742Y-56563399D01*
X186333315Y-56595907D01*
X186166685Y-56595907D01*
X186003258Y-56563399D01*
X185849313Y-56499633D01*
X185710766Y-56407059D01*
X185592941Y-56289234D01*
X185500367Y-56150687D01*
X185436601Y-55996742D01*
X185404093Y-55833315D01*
X185404093Y-55666685D01*
X185436601Y-55503258D01*
X185500367Y-55349313D01*
X185592941Y-55210766D01*
X185710766Y-55092941D01*
X185849313Y-55000367D01*
X186003258Y-54936601D01*
X186166685Y-54904093D01*
X186333315Y-54904093D01*
X186496742Y-54936601D01*
G37*
G36*
X117950181Y-52538429D02*
G01*
X118202879Y-52606140D01*
X118444577Y-52706255D01*
X118671140Y-52837061D01*
X118878692Y-52996320D01*
X119063680Y-53181308D01*
X119222939Y-53388860D01*
X119353745Y-53615423D01*
X119453860Y-53857121D01*
X119521571Y-54109819D01*
X119555718Y-54369194D01*
X119555718Y-54630806D01*
X119521571Y-54890181D01*
X119453860Y-55142879D01*
X119353745Y-55384577D01*
X119222939Y-55611140D01*
X119063680Y-55818692D01*
X118878692Y-56003680D01*
X118671140Y-56162939D01*
X118444577Y-56293745D01*
X118202879Y-56393860D01*
X117950181Y-56461571D01*
X117690806Y-56495718D01*
X117429194Y-56495718D01*
X117169819Y-56461571D01*
X116917121Y-56393860D01*
X116675423Y-56293745D01*
X116448860Y-56162939D01*
X116241308Y-56003680D01*
X116056320Y-55818692D01*
X115897061Y-55611140D01*
X115766255Y-55384577D01*
X115666140Y-55142879D01*
X115598429Y-54890181D01*
X115564282Y-54630806D01*
X115564282Y-54369194D01*
X115598429Y-54109819D01*
X115666140Y-53857121D01*
X115766255Y-53615423D01*
X115897061Y-53388860D01*
X116056320Y-53181308D01*
X116241308Y-52996320D01*
X116448860Y-52837061D01*
X116675423Y-52706255D01*
X116917121Y-52606140D01*
X117169819Y-52538429D01*
X117429194Y-52504282D01*
X117690806Y-52504282D01*
X117950181Y-52538429D01*
G37*
G36*
X137100181Y-52538429D02*
G01*
X137352879Y-52606140D01*
X137594577Y-52706255D01*
X137821140Y-52837061D01*
X138028692Y-52996320D01*
X138213680Y-53181308D01*
X138372939Y-53388860D01*
X138503745Y-53615423D01*
X138603860Y-53857121D01*
X138671571Y-54109819D01*
X138705718Y-54369194D01*
X138705718Y-54630806D01*
X138671571Y-54890181D01*
X138603860Y-55142879D01*
X138503745Y-55384577D01*
X138372939Y-55611140D01*
X138213680Y-55818692D01*
X138028692Y-56003680D01*
X137821140Y-56162939D01*
X137594577Y-56293745D01*
X137352879Y-56393860D01*
X137100181Y-56461571D01*
X136840806Y-56495718D01*
X136579194Y-56495718D01*
X136319819Y-56461571D01*
X136067121Y-56393860D01*
X135825423Y-56293745D01*
X135598860Y-56162939D01*
X135391308Y-56003680D01*
X135206320Y-55818692D01*
X135047061Y-55611140D01*
X134916255Y-55384577D01*
X134816140Y-55142879D01*
X134748429Y-54890181D01*
X134714282Y-54630806D01*
X134714282Y-54369194D01*
X134748429Y-54109819D01*
X134816140Y-53857121D01*
X134916255Y-53615423D01*
X135047061Y-53388860D01*
X135206320Y-53181308D01*
X135391308Y-52996320D01*
X135598860Y-52837061D01*
X135825423Y-52706255D01*
X136067121Y-52606140D01*
X136319819Y-52538429D01*
X136579194Y-52504282D01*
X136840806Y-52504282D01*
X137100181Y-52538429D01*
G37*
G36*
X156200181Y-52538429D02*
G01*
X156452879Y-52606140D01*
X156694577Y-52706255D01*
X156921140Y-52837061D01*
X157128692Y-52996320D01*
X157313680Y-53181308D01*
X157472939Y-53388860D01*
X157603745Y-53615423D01*
X157703860Y-53857121D01*
X157771571Y-54109819D01*
X157805718Y-54369194D01*
X157805718Y-54630806D01*
X157771571Y-54890181D01*
X157703860Y-55142879D01*
X157603745Y-55384577D01*
X157472939Y-55611140D01*
X157313680Y-55818692D01*
X157128692Y-56003680D01*
X156921140Y-56162939D01*
X156694577Y-56293745D01*
X156452879Y-56393860D01*
X156200181Y-56461571D01*
X155940806Y-56495718D01*
X155679194Y-56495718D01*
X155419819Y-56461571D01*
X155167121Y-56393860D01*
X154925423Y-56293745D01*
X154698860Y-56162939D01*
X154491308Y-56003680D01*
X154306320Y-55818692D01*
X154147061Y-55611140D01*
X154016255Y-55384577D01*
X153916140Y-55142879D01*
X153848429Y-54890181D01*
X153814282Y-54630806D01*
X153814282Y-54369194D01*
X153848429Y-54109819D01*
X153916140Y-53857121D01*
X154016255Y-53615423D01*
X154147061Y-53388860D01*
X154306320Y-53181308D01*
X154491308Y-52996320D01*
X154698860Y-52837061D01*
X154925423Y-52706255D01*
X155167121Y-52606140D01*
X155419819Y-52538429D01*
X155679194Y-52504282D01*
X155940806Y-52504282D01*
X156200181Y-52538429D01*
G37*
G36*
X175200181Y-52538429D02*
G01*
X175452879Y-52606140D01*
X175694577Y-52706255D01*
X175921140Y-52837061D01*
X176128692Y-52996320D01*
X176313680Y-53181308D01*
X176472939Y-53388860D01*
X176603745Y-53615423D01*
X176703860Y-53857121D01*
X176771571Y-54109819D01*
X176805718Y-54369194D01*
X176805718Y-54630806D01*
X176771571Y-54890181D01*
X176703860Y-55142879D01*
X176603745Y-55384577D01*
X176472939Y-55611140D01*
X176313680Y-55818692D01*
X176128692Y-56003680D01*
X175921140Y-56162939D01*
X175694577Y-56293745D01*
X175452879Y-56393860D01*
X175200181Y-56461571D01*
X174940806Y-56495718D01*
X174679194Y-56495718D01*
X174419819Y-56461571D01*
X174167121Y-56393860D01*
X173925423Y-56293745D01*
X173698860Y-56162939D01*
X173491308Y-56003680D01*
X173306320Y-55818692D01*
X173147061Y-55611140D01*
X173016255Y-55384577D01*
X172916140Y-55142879D01*
X172848429Y-54890181D01*
X172814282Y-54630806D01*
X172814282Y-54369194D01*
X172848429Y-54109819D01*
X172916140Y-53857121D01*
X173016255Y-53615423D01*
X173147061Y-53388860D01*
X173306320Y-53181308D01*
X173491308Y-52996320D01*
X173698860Y-52837061D01*
X173925423Y-52706255D01*
X174167121Y-52606140D01*
X174419819Y-52538429D01*
X174679194Y-52504282D01*
X174940806Y-52504282D01*
X175200181Y-52538429D01*
G37*
G36*
X230290285Y-53753060D02*
G01*
X230471397Y-53828079D01*
X230634393Y-53936990D01*
X230773010Y-54075607D01*
X230881921Y-54238603D01*
X230956940Y-54419715D01*
X230995185Y-54611983D01*
X230995185Y-54808017D01*
X230956940Y-55000285D01*
X230881921Y-55181397D01*
X230773010Y-55344393D01*
X230634393Y-55483010D01*
X230471397Y-55591921D01*
X230290285Y-55666940D01*
X230098017Y-55705185D01*
X229901983Y-55705185D01*
X229709715Y-55666940D01*
X229528603Y-55591921D01*
X229365607Y-55483010D01*
X229226990Y-55344393D01*
X229118079Y-55181397D01*
X229043060Y-55000285D01*
X229004815Y-54808017D01*
X229004815Y-54611983D01*
X229043060Y-54419715D01*
X229118079Y-54238603D01*
X229226990Y-54075607D01*
X229365607Y-53936990D01*
X229528603Y-53828079D01*
X229709715Y-53753060D01*
X229901983Y-53714815D01*
X230098017Y-53714815D01*
X230290285Y-53753060D01*
G37*
G36*
X112726742Y-53686601D02*
G01*
X112880687Y-53750367D01*
X113019234Y-53842941D01*
X113137059Y-53960766D01*
X113229633Y-54099313D01*
X113293399Y-54253258D01*
X113325907Y-54416685D01*
X113325907Y-54583315D01*
X113293399Y-54746742D01*
X113229633Y-54900687D01*
X113137059Y-55039234D01*
X113019234Y-55157059D01*
X112880687Y-55249633D01*
X112726742Y-55313399D01*
X112563315Y-55345907D01*
X112396685Y-55345907D01*
X112233258Y-55313399D01*
X112079313Y-55249633D01*
X111940766Y-55157059D01*
X111822941Y-55039234D01*
X111730367Y-54900687D01*
X111666601Y-54746742D01*
X111634093Y-54583315D01*
X111634093Y-54416685D01*
X111666601Y-54253258D01*
X111730367Y-54099313D01*
X111822941Y-53960766D01*
X111940766Y-53842941D01*
X112079313Y-53750367D01*
X112233258Y-53686601D01*
X112396685Y-53654093D01*
X112563315Y-53654093D01*
X112726742Y-53686601D01*
G37*
G36*
X122886742Y-53686601D02*
G01*
X123040687Y-53750367D01*
X123179234Y-53842941D01*
X123297059Y-53960766D01*
X123389633Y-54099313D01*
X123453399Y-54253258D01*
X123485907Y-54416685D01*
X123485907Y-54583315D01*
X123453399Y-54746742D01*
X123389633Y-54900687D01*
X123297059Y-55039234D01*
X123179234Y-55157059D01*
X123040687Y-55249633D01*
X122886742Y-55313399D01*
X122723315Y-55345907D01*
X122556685Y-55345907D01*
X122393258Y-55313399D01*
X122239313Y-55249633D01*
X122100766Y-55157059D01*
X121982941Y-55039234D01*
X121890367Y-54900687D01*
X121826601Y-54746742D01*
X121794093Y-54583315D01*
X121794093Y-54416685D01*
X121826601Y-54253258D01*
X121890367Y-54099313D01*
X121982941Y-53960766D01*
X122100766Y-53842941D01*
X122239313Y-53750367D01*
X122393258Y-53686601D01*
X122556685Y-53654093D01*
X122723315Y-53654093D01*
X122886742Y-53686601D01*
G37*
G36*
X131876742Y-53686601D02*
G01*
X132030687Y-53750367D01*
X132169234Y-53842941D01*
X132287059Y-53960766D01*
X132379633Y-54099313D01*
X132443399Y-54253258D01*
X132475907Y-54416685D01*
X132475907Y-54583315D01*
X132443399Y-54746742D01*
X132379633Y-54900687D01*
X132287059Y-55039234D01*
X132169234Y-55157059D01*
X132030687Y-55249633D01*
X131876742Y-55313399D01*
X131713315Y-55345907D01*
X131546685Y-55345907D01*
X131383258Y-55313399D01*
X131229313Y-55249633D01*
X131090766Y-55157059D01*
X130972941Y-55039234D01*
X130880367Y-54900687D01*
X130816601Y-54746742D01*
X130784093Y-54583315D01*
X130784093Y-54416685D01*
X130816601Y-54253258D01*
X130880367Y-54099313D01*
X130972941Y-53960766D01*
X131090766Y-53842941D01*
X131229313Y-53750367D01*
X131383258Y-53686601D01*
X131546685Y-53654093D01*
X131713315Y-53654093D01*
X131876742Y-53686601D01*
G37*
G36*
X142036742Y-53686601D02*
G01*
X142190687Y-53750367D01*
X142329234Y-53842941D01*
X142447059Y-53960766D01*
X142539633Y-54099313D01*
X142603399Y-54253258D01*
X142635907Y-54416685D01*
X142635907Y-54583315D01*
X142603399Y-54746742D01*
X142539633Y-54900687D01*
X142447059Y-55039234D01*
X142329234Y-55157059D01*
X142190687Y-55249633D01*
X142036742Y-55313399D01*
X141873315Y-55345907D01*
X141706685Y-55345907D01*
X141543258Y-55313399D01*
X141389313Y-55249633D01*
X141250766Y-55157059D01*
X141132941Y-55039234D01*
X141040367Y-54900687D01*
X140976601Y-54746742D01*
X140944093Y-54583315D01*
X140944093Y-54416685D01*
X140976601Y-54253258D01*
X141040367Y-54099313D01*
X141132941Y-53960766D01*
X141250766Y-53842941D01*
X141389313Y-53750367D01*
X141543258Y-53686601D01*
X141706685Y-53654093D01*
X141873315Y-53654093D01*
X142036742Y-53686601D01*
G37*
G36*
X150976742Y-53686601D02*
G01*
X151130687Y-53750367D01*
X151269234Y-53842941D01*
X151387059Y-53960766D01*
X151479633Y-54099313D01*
X151543399Y-54253258D01*
X151575907Y-54416685D01*
X151575907Y-54583315D01*
X151543399Y-54746742D01*
X151479633Y-54900687D01*
X151387059Y-55039234D01*
X151269234Y-55157059D01*
X151130687Y-55249633D01*
X150976742Y-55313399D01*
X150813315Y-55345907D01*
X150646685Y-55345907D01*
X150483258Y-55313399D01*
X150329313Y-55249633D01*
X150190766Y-55157059D01*
X150072941Y-55039234D01*
X149980367Y-54900687D01*
X149916601Y-54746742D01*
X149884093Y-54583315D01*
X149884093Y-54416685D01*
X149916601Y-54253258D01*
X149980367Y-54099313D01*
X150072941Y-53960766D01*
X150190766Y-53842941D01*
X150329313Y-53750367D01*
X150483258Y-53686601D01*
X150646685Y-53654093D01*
X150813315Y-53654093D01*
X150976742Y-53686601D01*
G37*
G36*
X161136742Y-53686601D02*
G01*
X161290687Y-53750367D01*
X161429234Y-53842941D01*
X161547059Y-53960766D01*
X161639633Y-54099313D01*
X161703399Y-54253258D01*
X161735907Y-54416685D01*
X161735907Y-54583315D01*
X161703399Y-54746742D01*
X161639633Y-54900687D01*
X161547059Y-55039234D01*
X161429234Y-55157059D01*
X161290687Y-55249633D01*
X161136742Y-55313399D01*
X160973315Y-55345907D01*
X160806685Y-55345907D01*
X160643258Y-55313399D01*
X160489313Y-55249633D01*
X160350766Y-55157059D01*
X160232941Y-55039234D01*
X160140367Y-54900687D01*
X160076601Y-54746742D01*
X160044093Y-54583315D01*
X160044093Y-54416685D01*
X160076601Y-54253258D01*
X160140367Y-54099313D01*
X160232941Y-53960766D01*
X160350766Y-53842941D01*
X160489313Y-53750367D01*
X160643258Y-53686601D01*
X160806685Y-53654093D01*
X160973315Y-53654093D01*
X161136742Y-53686601D01*
G37*
G36*
X169976742Y-53686601D02*
G01*
X170130687Y-53750367D01*
X170269234Y-53842941D01*
X170387059Y-53960766D01*
X170479633Y-54099313D01*
X170543399Y-54253258D01*
X170575907Y-54416685D01*
X170575907Y-54583315D01*
X170543399Y-54746742D01*
X170479633Y-54900687D01*
X170387059Y-55039234D01*
X170269234Y-55157059D01*
X170130687Y-55249633D01*
X169976742Y-55313399D01*
X169813315Y-55345907D01*
X169646685Y-55345907D01*
X169483258Y-55313399D01*
X169329313Y-55249633D01*
X169190766Y-55157059D01*
X169072941Y-55039234D01*
X168980367Y-54900687D01*
X168916601Y-54746742D01*
X168884093Y-54583315D01*
X168884093Y-54416685D01*
X168916601Y-54253258D01*
X168980367Y-54099313D01*
X169072941Y-53960766D01*
X169190766Y-53842941D01*
X169329313Y-53750367D01*
X169483258Y-53686601D01*
X169646685Y-53654093D01*
X169813315Y-53654093D01*
X169976742Y-53686601D01*
G37*
G36*
X180136742Y-53686601D02*
G01*
X180290687Y-53750367D01*
X180429234Y-53842941D01*
X180547059Y-53960766D01*
X180639633Y-54099313D01*
X180703399Y-54253258D01*
X180735907Y-54416685D01*
X180735907Y-54583315D01*
X180703399Y-54746742D01*
X180639633Y-54900687D01*
X180547059Y-55039234D01*
X180429234Y-55157059D01*
X180290687Y-55249633D01*
X180136742Y-55313399D01*
X179973315Y-55345907D01*
X179806685Y-55345907D01*
X179643258Y-55313399D01*
X179489313Y-55249633D01*
X179350766Y-55157059D01*
X179232941Y-55039234D01*
X179140367Y-54900687D01*
X179076601Y-54746742D01*
X179044093Y-54583315D01*
X179044093Y-54416685D01*
X179076601Y-54253258D01*
X179140367Y-54099313D01*
X179232941Y-53960766D01*
X179350766Y-53842941D01*
X179489313Y-53750367D01*
X179643258Y-53686601D01*
X179806685Y-53654093D01*
X179973315Y-53654093D01*
X180136742Y-53686601D01*
G37*
G36*
X186496742Y-52396601D02*
G01*
X186650687Y-52460367D01*
X186789234Y-52552941D01*
X186907059Y-52670766D01*
X186999633Y-52809313D01*
X187063399Y-52963258D01*
X187095907Y-53126685D01*
X187095907Y-53293315D01*
X187063399Y-53456742D01*
X186999633Y-53610687D01*
X186907059Y-53749234D01*
X186789234Y-53867059D01*
X186650687Y-53959633D01*
X186496742Y-54023399D01*
X186333315Y-54055907D01*
X186166685Y-54055907D01*
X186003258Y-54023399D01*
X185849313Y-53959633D01*
X185710766Y-53867059D01*
X185592941Y-53749234D01*
X185500367Y-53610687D01*
X185436601Y-53456742D01*
X185404093Y-53293315D01*
X185404093Y-53126685D01*
X185436601Y-52963258D01*
X185500367Y-52809313D01*
X185592941Y-52670766D01*
X185710766Y-52552941D01*
X185849313Y-52460367D01*
X186003258Y-52396601D01*
X186166685Y-52364093D01*
X186333315Y-52364093D01*
X186496742Y-52396601D01*
G37*
G36*
X231000000Y-53210000D02*
G01*
X229000000Y-53210000D01*
X229000000Y-51210000D01*
X231000000Y-51210000D01*
X231000000Y-53210000D01*
G37*
G36*
X244790285Y-51253060D02*
G01*
X244971397Y-51328079D01*
X245134393Y-51436990D01*
X245273010Y-51575607D01*
X245381921Y-51738603D01*
X245456940Y-51919715D01*
X245495185Y-52111983D01*
X245495185Y-52308017D01*
X245456940Y-52500285D01*
X245381921Y-52681397D01*
X245273010Y-52844393D01*
X245134393Y-52983010D01*
X244971397Y-53091921D01*
X244790285Y-53166940D01*
X244598017Y-53205185D01*
X244401983Y-53205185D01*
X244209715Y-53166940D01*
X244028603Y-53091921D01*
X243865607Y-52983010D01*
X243726990Y-52844393D01*
X243618079Y-52681397D01*
X243543060Y-52500285D01*
X243504815Y-52308017D01*
X243504815Y-52111983D01*
X243543060Y-51919715D01*
X243618079Y-51738603D01*
X243726990Y-51575607D01*
X243865607Y-51436990D01*
X244028603Y-51328079D01*
X244209715Y-51253060D01*
X244401983Y-51214815D01*
X244598017Y-51214815D01*
X244790285Y-51253060D01*
G37*
G36*
X114006790Y-50890393D02*
G01*
X114170952Y-50943733D01*
X114324748Y-51022096D01*
X114464393Y-51123553D01*
X114586447Y-51245607D01*
X114687904Y-51385252D01*
X114766267Y-51539048D01*
X114819607Y-51703210D01*
X114846609Y-51873695D01*
X114846609Y-52046305D01*
X114819607Y-52216790D01*
X114766267Y-52380952D01*
X114687904Y-52534748D01*
X114586447Y-52674393D01*
X114464393Y-52796447D01*
X114324748Y-52897904D01*
X114170952Y-52976267D01*
X114006790Y-53029607D01*
X113836305Y-53056609D01*
X113663695Y-53056609D01*
X113493210Y-53029607D01*
X113329048Y-52976267D01*
X113175252Y-52897904D01*
X113035607Y-52796447D01*
X112913553Y-52674393D01*
X112812096Y-52534748D01*
X112733733Y-52380952D01*
X112680393Y-52216790D01*
X112653391Y-52046305D01*
X112653391Y-51873695D01*
X112680393Y-51703210D01*
X112733733Y-51539048D01*
X112812096Y-51385252D01*
X112913553Y-51245607D01*
X113035607Y-51123553D01*
X113175252Y-51022096D01*
X113329048Y-50943733D01*
X113493210Y-50890393D01*
X113663695Y-50863391D01*
X113836305Y-50863391D01*
X114006790Y-50890393D01*
G37*
G36*
X133156790Y-50890393D02*
G01*
X133320952Y-50943733D01*
X133474748Y-51022096D01*
X133614393Y-51123553D01*
X133736447Y-51245607D01*
X133837904Y-51385252D01*
X133916267Y-51539048D01*
X133969607Y-51703210D01*
X133996609Y-51873695D01*
X133996609Y-52046305D01*
X133969607Y-52216790D01*
X133916267Y-52380952D01*
X133837904Y-52534748D01*
X133736447Y-52674393D01*
X133614393Y-52796447D01*
X133474748Y-52897904D01*
X133320952Y-52976267D01*
X133156790Y-53029607D01*
X132986305Y-53056609D01*
X132813695Y-53056609D01*
X132643210Y-53029607D01*
X132479048Y-52976267D01*
X132325252Y-52897904D01*
X132185607Y-52796447D01*
X132063553Y-52674393D01*
X131962096Y-52534748D01*
X131883733Y-52380952D01*
X131830393Y-52216790D01*
X131803391Y-52046305D01*
X131803391Y-51873695D01*
X131830393Y-51703210D01*
X131883733Y-51539048D01*
X131962096Y-51385252D01*
X132063553Y-51245607D01*
X132185607Y-51123553D01*
X132325252Y-51022096D01*
X132479048Y-50943733D01*
X132643210Y-50890393D01*
X132813695Y-50863391D01*
X132986305Y-50863391D01*
X133156790Y-50890393D01*
G37*
G36*
X152256790Y-50890393D02*
G01*
X152420952Y-50943733D01*
X152574748Y-51022096D01*
X152714393Y-51123553D01*
X152836447Y-51245607D01*
X152937904Y-51385252D01*
X153016267Y-51539048D01*
X153069607Y-51703210D01*
X153096609Y-51873695D01*
X153096609Y-52046305D01*
X153069607Y-52216790D01*
X153016267Y-52380952D01*
X152937904Y-52534748D01*
X152836447Y-52674393D01*
X152714393Y-52796447D01*
X152574748Y-52897904D01*
X152420952Y-52976267D01*
X152256790Y-53029607D01*
X152086305Y-53056609D01*
X151913695Y-53056609D01*
X151743210Y-53029607D01*
X151579048Y-52976267D01*
X151425252Y-52897904D01*
X151285607Y-52796447D01*
X151163553Y-52674393D01*
X151062096Y-52534748D01*
X150983733Y-52380952D01*
X150930393Y-52216790D01*
X150903391Y-52046305D01*
X150903391Y-51873695D01*
X150930393Y-51703210D01*
X150983733Y-51539048D01*
X151062096Y-51385252D01*
X151163553Y-51245607D01*
X151285607Y-51123553D01*
X151425252Y-51022096D01*
X151579048Y-50943733D01*
X151743210Y-50890393D01*
X151913695Y-50863391D01*
X152086305Y-50863391D01*
X152256790Y-50890393D01*
G37*
G36*
X171256790Y-50890393D02*
G01*
X171420952Y-50943733D01*
X171574748Y-51022096D01*
X171714393Y-51123553D01*
X171836447Y-51245607D01*
X171937904Y-51385252D01*
X172016267Y-51539048D01*
X172069607Y-51703210D01*
X172096609Y-51873695D01*
X172096609Y-52046305D01*
X172069607Y-52216790D01*
X172016267Y-52380952D01*
X171937904Y-52534748D01*
X171836447Y-52674393D01*
X171714393Y-52796447D01*
X171574748Y-52897904D01*
X171420952Y-52976267D01*
X171256790Y-53029607D01*
X171086305Y-53056609D01*
X170913695Y-53056609D01*
X170743210Y-53029607D01*
X170579048Y-52976267D01*
X170425252Y-52897904D01*
X170285607Y-52796447D01*
X170163553Y-52674393D01*
X170062096Y-52534748D01*
X169983733Y-52380952D01*
X169930393Y-52216790D01*
X169903391Y-52046305D01*
X169903391Y-51873695D01*
X169930393Y-51703210D01*
X169983733Y-51539048D01*
X170062096Y-51385252D01*
X170163553Y-51245607D01*
X170285607Y-51123553D01*
X170425252Y-51022096D01*
X170579048Y-50943733D01*
X170743210Y-50890393D01*
X170913695Y-50863391D01*
X171086305Y-50863391D01*
X171256790Y-50890393D01*
G37*
G36*
X187100000Y-51520000D02*
G01*
X185400000Y-51520000D01*
X185400000Y-49820000D01*
X187100000Y-49820000D01*
X187100000Y-51520000D01*
G37*
G36*
X120356790Y-48350393D02*
G01*
X120520952Y-48403733D01*
X120674748Y-48482096D01*
X120814393Y-48583553D01*
X120936447Y-48705607D01*
X121037904Y-48845252D01*
X121116267Y-48999048D01*
X121169607Y-49163210D01*
X121196609Y-49333695D01*
X121196609Y-49506305D01*
X121169607Y-49676790D01*
X121116267Y-49840952D01*
X121037904Y-49994748D01*
X120936447Y-50134393D01*
X120814393Y-50256447D01*
X120674748Y-50357904D01*
X120520952Y-50436267D01*
X120356790Y-50489607D01*
X120186305Y-50516609D01*
X120013695Y-50516609D01*
X119843210Y-50489607D01*
X119679048Y-50436267D01*
X119525252Y-50357904D01*
X119385607Y-50256447D01*
X119263553Y-50134393D01*
X119162096Y-49994748D01*
X119083733Y-49840952D01*
X119030393Y-49676790D01*
X119003391Y-49506305D01*
X119003391Y-49333695D01*
X119030393Y-49163210D01*
X119083733Y-48999048D01*
X119162096Y-48845252D01*
X119263553Y-48705607D01*
X119385607Y-48583553D01*
X119525252Y-48482096D01*
X119679048Y-48403733D01*
X119843210Y-48350393D01*
X120013695Y-48323391D01*
X120186305Y-48323391D01*
X120356790Y-48350393D01*
G37*
G36*
X139506790Y-48350393D02*
G01*
X139670952Y-48403733D01*
X139824748Y-48482096D01*
X139964393Y-48583553D01*
X140086447Y-48705607D01*
X140187904Y-48845252D01*
X140266267Y-48999048D01*
X140319607Y-49163210D01*
X140346609Y-49333695D01*
X140346609Y-49506305D01*
X140319607Y-49676790D01*
X140266267Y-49840952D01*
X140187904Y-49994748D01*
X140086447Y-50134393D01*
X139964393Y-50256447D01*
X139824748Y-50357904D01*
X139670952Y-50436267D01*
X139506790Y-50489607D01*
X139336305Y-50516609D01*
X139163695Y-50516609D01*
X138993210Y-50489607D01*
X138829048Y-50436267D01*
X138675252Y-50357904D01*
X138535607Y-50256447D01*
X138413553Y-50134393D01*
X138312096Y-49994748D01*
X138233733Y-49840952D01*
X138180393Y-49676790D01*
X138153391Y-49506305D01*
X138153391Y-49333695D01*
X138180393Y-49163210D01*
X138233733Y-48999048D01*
X138312096Y-48845252D01*
X138413553Y-48705607D01*
X138535607Y-48583553D01*
X138675252Y-48482096D01*
X138829048Y-48403733D01*
X138993210Y-48350393D01*
X139163695Y-48323391D01*
X139336305Y-48323391D01*
X139506790Y-48350393D01*
G37*
G36*
X158606790Y-48350393D02*
G01*
X158770952Y-48403733D01*
X158924748Y-48482096D01*
X159064393Y-48583553D01*
X159186447Y-48705607D01*
X159287904Y-48845252D01*
X159366267Y-48999048D01*
X159419607Y-49163210D01*
X159446609Y-49333695D01*
X159446609Y-49506305D01*
X159419607Y-49676790D01*
X159366267Y-49840952D01*
X159287904Y-49994748D01*
X159186447Y-50134393D01*
X159064393Y-50256447D01*
X158924748Y-50357904D01*
X158770952Y-50436267D01*
X158606790Y-50489607D01*
X158436305Y-50516609D01*
X158263695Y-50516609D01*
X158093210Y-50489607D01*
X157929048Y-50436267D01*
X157775252Y-50357904D01*
X157635607Y-50256447D01*
X157513553Y-50134393D01*
X157412096Y-49994748D01*
X157333733Y-49840952D01*
X157280393Y-49676790D01*
X157253391Y-49506305D01*
X157253391Y-49333695D01*
X157280393Y-49163210D01*
X157333733Y-48999048D01*
X157412096Y-48845252D01*
X157513553Y-48705607D01*
X157635607Y-48583553D01*
X157775252Y-48482096D01*
X157929048Y-48403733D01*
X158093210Y-48350393D01*
X158263695Y-48323391D01*
X158436305Y-48323391D01*
X158606790Y-48350393D01*
G37*
G36*
X177606790Y-48350393D02*
G01*
X177770952Y-48403733D01*
X177924748Y-48482096D01*
X178064393Y-48583553D01*
X178186447Y-48705607D01*
X178287904Y-48845252D01*
X178366267Y-48999048D01*
X178419607Y-49163210D01*
X178446609Y-49333695D01*
X178446609Y-49506305D01*
X178419607Y-49676790D01*
X178366267Y-49840952D01*
X178287904Y-49994748D01*
X178186447Y-50134393D01*
X178064393Y-50256447D01*
X177924748Y-50357904D01*
X177770952Y-50436267D01*
X177606790Y-50489607D01*
X177436305Y-50516609D01*
X177263695Y-50516609D01*
X177093210Y-50489607D01*
X176929048Y-50436267D01*
X176775252Y-50357904D01*
X176635607Y-50256447D01*
X176513553Y-50134393D01*
X176412096Y-49994748D01*
X176333733Y-49840952D01*
X176280393Y-49676790D01*
X176253391Y-49506305D01*
X176253391Y-49333695D01*
X176280393Y-49163210D01*
X176333733Y-48999048D01*
X176412096Y-48845252D01*
X176513553Y-48705607D01*
X176635607Y-48583553D01*
X176775252Y-48482096D01*
X176929048Y-48403733D01*
X177093210Y-48350393D01*
X177263695Y-48323391D01*
X177436305Y-48323391D01*
X177606790Y-48350393D01*
G37*
G36*
X239100000Y-50110000D02*
G01*
X235900000Y-50110000D01*
X235900000Y-48110000D01*
X239100000Y-48110000D01*
X239100000Y-50110000D01*
G37*
G36*
X114036742Y-43861601D02*
G01*
X114190687Y-43925367D01*
X114329234Y-44017941D01*
X114447059Y-44135766D01*
X114539633Y-44274313D01*
X114603399Y-44428258D01*
X114635907Y-44591685D01*
X114640000Y-44675000D01*
X114640000Y-46575000D01*
X114635907Y-46658315D01*
X114603399Y-46821742D01*
X114539633Y-46975687D01*
X114447059Y-47114234D01*
X114329234Y-47232059D01*
X114190687Y-47324633D01*
X114036742Y-47388399D01*
X113873315Y-47420907D01*
X113706685Y-47420907D01*
X113543258Y-47388399D01*
X113389313Y-47324633D01*
X113250766Y-47232059D01*
X113132941Y-47114234D01*
X113040367Y-46975687D01*
X112976601Y-46821742D01*
X112944093Y-46658315D01*
X112940000Y-46575000D01*
X112940000Y-44675000D01*
X112944093Y-44591685D01*
X112976601Y-44428258D01*
X113040367Y-44274313D01*
X113132941Y-44135766D01*
X113250766Y-44017941D01*
X113389313Y-43925367D01*
X113543258Y-43861601D01*
X113706685Y-43829093D01*
X113873315Y-43829093D01*
X114036742Y-43861601D01*
G37*
G36*
X116576742Y-43861601D02*
G01*
X116730687Y-43925367D01*
X116869234Y-44017941D01*
X116987059Y-44135766D01*
X117079633Y-44274313D01*
X117143399Y-44428258D01*
X117175907Y-44591685D01*
X117180000Y-44675000D01*
X117180000Y-46575000D01*
X117175907Y-46658315D01*
X117143399Y-46821742D01*
X117079633Y-46975687D01*
X116987059Y-47114234D01*
X116869234Y-47232059D01*
X116730687Y-47324633D01*
X116576742Y-47388399D01*
X116413315Y-47420907D01*
X116246685Y-47420907D01*
X116083258Y-47388399D01*
X115929313Y-47324633D01*
X115790766Y-47232059D01*
X115672941Y-47114234D01*
X115580367Y-46975687D01*
X115516601Y-46821742D01*
X115484093Y-46658315D01*
X115480000Y-46575000D01*
X115480000Y-44675000D01*
X115484093Y-44591685D01*
X115516601Y-44428258D01*
X115580367Y-44274313D01*
X115672941Y-44135766D01*
X115790766Y-44017941D01*
X115929313Y-43925367D01*
X116083258Y-43861601D01*
X116246685Y-43829093D01*
X116413315Y-43829093D01*
X116576742Y-43861601D01*
G37*
G36*
X119116742Y-43861601D02*
G01*
X119270687Y-43925367D01*
X119409234Y-44017941D01*
X119527059Y-44135766D01*
X119619633Y-44274313D01*
X119683399Y-44428258D01*
X119715907Y-44591685D01*
X119720000Y-44675000D01*
X119720000Y-46575000D01*
X119715907Y-46658315D01*
X119683399Y-46821742D01*
X119619633Y-46975687D01*
X119527059Y-47114234D01*
X119409234Y-47232059D01*
X119270687Y-47324633D01*
X119116742Y-47388399D01*
X118953315Y-47420907D01*
X118786685Y-47420907D01*
X118623258Y-47388399D01*
X118469313Y-47324633D01*
X118330766Y-47232059D01*
X118212941Y-47114234D01*
X118120367Y-46975687D01*
X118056601Y-46821742D01*
X118024093Y-46658315D01*
X118020000Y-46575000D01*
X118020000Y-44675000D01*
X118024093Y-44591685D01*
X118056601Y-44428258D01*
X118120367Y-44274313D01*
X118212941Y-44135766D01*
X118330766Y-44017941D01*
X118469313Y-43925367D01*
X118623258Y-43861601D01*
X118786685Y-43829093D01*
X118953315Y-43829093D01*
X119116742Y-43861601D01*
G37*
G36*
X121656742Y-43861601D02*
G01*
X121810687Y-43925367D01*
X121949234Y-44017941D01*
X122067059Y-44135766D01*
X122159633Y-44274313D01*
X122223399Y-44428258D01*
X122255907Y-44591685D01*
X122260000Y-44675000D01*
X122260000Y-46575000D01*
X122255907Y-46658315D01*
X122223399Y-46821742D01*
X122159633Y-46975687D01*
X122067059Y-47114234D01*
X121949234Y-47232059D01*
X121810687Y-47324633D01*
X121656742Y-47388399D01*
X121493315Y-47420907D01*
X121326685Y-47420907D01*
X121163258Y-47388399D01*
X121009313Y-47324633D01*
X120870766Y-47232059D01*
X120752941Y-47114234D01*
X120660367Y-46975687D01*
X120596601Y-46821742D01*
X120564093Y-46658315D01*
X120560000Y-46575000D01*
X120560000Y-44675000D01*
X120564093Y-44591685D01*
X120596601Y-44428258D01*
X120660367Y-44274313D01*
X120752941Y-44135766D01*
X120870766Y-44017941D01*
X121009313Y-43925367D01*
X121163258Y-43861601D01*
X121326685Y-43829093D01*
X121493315Y-43829093D01*
X121656742Y-43861601D01*
G37*
G36*
X124196742Y-43861601D02*
G01*
X124350687Y-43925367D01*
X124489234Y-44017941D01*
X124607059Y-44135766D01*
X124699633Y-44274313D01*
X124763399Y-44428258D01*
X124795907Y-44591685D01*
X124800000Y-44675000D01*
X124800000Y-46575000D01*
X124795907Y-46658315D01*
X124763399Y-46821742D01*
X124699633Y-46975687D01*
X124607059Y-47114234D01*
X124489234Y-47232059D01*
X124350687Y-47324633D01*
X124196742Y-47388399D01*
X124033315Y-47420907D01*
X123866685Y-47420907D01*
X123703258Y-47388399D01*
X123549313Y-47324633D01*
X123410766Y-47232059D01*
X123292941Y-47114234D01*
X123200367Y-46975687D01*
X123136601Y-46821742D01*
X123104093Y-46658315D01*
X123100000Y-46575000D01*
X123100000Y-44675000D01*
X123104093Y-44591685D01*
X123136601Y-44428258D01*
X123200367Y-44274313D01*
X123292941Y-44135766D01*
X123410766Y-44017941D01*
X123549313Y-43925367D01*
X123703258Y-43861601D01*
X123866685Y-43829093D01*
X124033315Y-43829093D01*
X124196742Y-43861601D01*
G37*
G36*
X126736742Y-43861601D02*
G01*
X126890687Y-43925367D01*
X127029234Y-44017941D01*
X127147059Y-44135766D01*
X127239633Y-44274313D01*
X127303399Y-44428258D01*
X127335907Y-44591685D01*
X127340000Y-44675000D01*
X127340000Y-46575000D01*
X127335907Y-46658315D01*
X127303399Y-46821742D01*
X127239633Y-46975687D01*
X127147059Y-47114234D01*
X127029234Y-47232059D01*
X126890687Y-47324633D01*
X126736742Y-47388399D01*
X126573315Y-47420907D01*
X126406685Y-47420907D01*
X126243258Y-47388399D01*
X126089313Y-47324633D01*
X125950766Y-47232059D01*
X125832941Y-47114234D01*
X125740367Y-46975687D01*
X125676601Y-46821742D01*
X125644093Y-46658315D01*
X125640000Y-46575000D01*
X125640000Y-44675000D01*
X125644093Y-44591685D01*
X125676601Y-44428258D01*
X125740367Y-44274313D01*
X125832941Y-44135766D01*
X125950766Y-44017941D01*
X126089313Y-43925367D01*
X126243258Y-43861601D01*
X126406685Y-43829093D01*
X126573315Y-43829093D01*
X126736742Y-43861601D01*
G37*
G36*
X112100000Y-47375000D02*
G01*
X110400000Y-47375000D01*
X110400000Y-43875000D01*
X112100000Y-43875000D01*
X112100000Y-47375000D01*
G37*
M02*
