%TF.GenerationSoftware,KiCad,Pcbnew,9.0.7*%
%TF.CreationDate,2026-03-04T14:21:46+05:30*%
%TF.ProjectId,XeonPad,58656f6e-5061-4642-9e6b-696361645f70,rev?*%
%TF.SameCoordinates,Original*%
%TF.FileFunction,Copper,L1,Top*%
%TF.FilePolarity,Positive*%
%FSLAX46Y46*%
G04 Gerber Fmt 4.6, Leading zero omitted, Abs format (unit mm)*
G04 Created by KiCad (PCBNEW 9.0.7) date 2026-03-04 14:21:46*
%MOMM*%
%LPD*%
G01*
G04 APERTURE LIST*
%TA.AperFunction,ComponentPad*%
%ADD10C,2.200000*%
%TD*%
%TA.AperFunction,ComponentPad*%
%ADD11R,1.700000X1.700000*%
%TD*%
%TA.AperFunction,ComponentPad*%
%ADD12C,1.700000*%
%TD*%
%TA.AperFunction,ComponentPad*%
%ADD13R,2.000000X2.000000*%
%TD*%
%TA.AperFunction,ComponentPad*%
%ADD14C,2.000000*%
%TD*%
%TA.AperFunction,ComponentPad*%
%ADD15R,3.200000X2.000000*%
%TD*%
%TA.AperFunction,ComponentPad*%
%ADD16R,1.700000X3.500000*%
%TD*%
%TA.AperFunction,ComponentPad*%
%ADD17O,1.700000X3.600000*%
%TD*%
%TA.AperFunction,ComponentPad*%
%ADD18O,1.700000X3.700000*%
%TD*%
%TA.AperFunction,ViaPad*%
%ADD19C,0.600000*%
%TD*%
%TA.AperFunction,Conductor*%
%ADD20C,0.500000*%
%TD*%
%TA.AperFunction,Conductor*%
%ADD21C,0.250000*%
%TD*%
G04 APERTURE END LIST*
D10*
%TO.P,SW3,1,1*%
%TO.N,/KEY3*%
X158350000Y-49420000D03*
%TO.P,SW3,2,2*%
%TO.N,GND*%
X152000000Y-51960000D03*
%TD*%
%TO.P,SW1,1,1*%
%TO.N,/KEY1*%
X120100000Y-49420000D03*
%TO.P,SW1,2,2*%
%TO.N,GND*%
X113750000Y-51960000D03*
%TD*%
D11*
%TO.P,J1,1,Pin_1*%
%TO.N,GND*%
X186250000Y-50670000D03*
D12*
%TO.P,J1,2,Pin_2*%
%TO.N,/VCC*%
X186250000Y-53210000D03*
%TO.P,J1,3,Pin_3*%
%TO.N,/SCL*%
X186250000Y-55750000D03*
%TO.P,J1,4,Pin_4*%
%TO.N,/SDA*%
X186250000Y-58290000D03*
%TD*%
D10*
%TO.P,SW2,1,1*%
%TO.N,/KEY2*%
X139250000Y-49420000D03*
%TO.P,SW2,2,2*%
%TO.N,GND*%
X132900000Y-51960000D03*
%TD*%
%TO.P,SW4,1,1*%
%TO.N,/KEY4*%
X177350000Y-49420000D03*
%TO.P,SW4,2,2*%
%TO.N,GND*%
X171000000Y-51960000D03*
%TD*%
D13*
%TO.P,SW5,A,A*%
%TO.N,/ENC_A*%
X230000000Y-52210000D03*
D14*
%TO.P,SW5,B,B*%
%TO.N,/ENC_B*%
X230000000Y-57210000D03*
%TO.P,SW5,C,C*%
%TO.N,GND*%
X230000000Y-54710000D03*
D15*
%TO.P,SW5,MP*%
%TO.N,N/C*%
X237500000Y-49110000D03*
X237500000Y-60310000D03*
D14*
%TO.P,SW5,S1,S1*%
%TO.N,/ENC_SW*%
X244500000Y-57210000D03*
%TO.P,SW5,S2,S2*%
%TO.N,GND*%
X244500000Y-52210000D03*
%TD*%
D16*
%TO.P,U1,1,PA02_A0_D0*%
%TO.N,/ENC_A*%
X111250000Y-45625000D03*
D17*
%TO.P,U1,2,PA4_A1_D1*%
%TO.N,/ENC_B*%
X113790000Y-45625000D03*
%TO.P,U1,3,PA10_A2_D2*%
%TO.N,/ENC_SW*%
X116330000Y-45625000D03*
%TO.P,U1,4,PA11_A3_D3*%
%TO.N,/LED_DATA*%
X118870000Y-45625000D03*
%TO.P,U1,5,PA8_A4_D4_SDA*%
%TO.N,/SDA*%
X121410000Y-45625000D03*
%TO.P,U1,6,PA9_A5_D5_SCL*%
%TO.N,/SCL*%
X123950000Y-45625000D03*
%TO.P,U1,7,PB08_A6_D6_TX*%
%TO.N,unconnected-(U1-PB08_A6_D6_TX-Pad7)*%
X126490000Y-45625000D03*
%TO.P,U1,8,PB09_A7_D7_RX*%
%TO.N,/KEY1*%
X126490000Y-62875000D03*
%TO.P,U1,9,PA7_A8_D8_SCK*%
%TO.N,/KEY2*%
X123950000Y-62875000D03*
%TO.P,U1,10,PA5_A9_D9_MISO*%
%TO.N,/KEY3*%
X121410000Y-62875000D03*
D18*
%TO.P,U1,11,PA6_A10_D10_MOSI*%
%TO.N,/KEY4*%
X118870000Y-62875000D03*
%TO.P,U1,12,3V3*%
%TO.N,/VCC*%
X116330000Y-62875000D03*
%TO.P,U1,13,GND*%
%TO.N,GND*%
X113790000Y-62875000D03*
%TO.P,U1,14,5V*%
%TO.N,+5V*%
X111250000Y-62875000D03*
%TD*%
D19*
%TO.N,+5V*%
X207523500Y-61733100D03*
X141346100Y-64343300D03*
X200864500Y-63709000D03*
%TO.N,/LED_DATA*%
X200864500Y-47066100D03*
%TO.N,Net-(D1-DOUT)*%
X200128300Y-68291900D03*
X142981000Y-69282200D03*
%TO.N,Net-(D2-DIN)*%
X216179800Y-66640200D03*
X135075400Y-68332200D03*
%TO.N,Net-(D2-DOUT)*%
X149925700Y-64532000D03*
X207749700Y-64957800D03*
%TO.N,/SDA*%
X125611100Y-58453300D03*
%TO.N,/SCL*%
X126289500Y-55866300D03*
%TO.N,/VCC*%
X181897600Y-60664200D03*
%TO.N,/KEY3*%
X122423300Y-50054100D03*
%TO.N,/KEY4*%
X177000500Y-62011500D03*
%TO.N,/ENC_SW*%
X120675000Y-53983800D03*
%TO.N,/ENC_B*%
X123253000Y-56288800D03*
%TD*%
D20*
%TO.N,GND*%
X113750000Y-51960000D02*
X113978200Y-51731800D01*
X171234900Y-51725100D02*
X183843200Y-51725100D01*
X186086600Y-51858300D02*
X184898300Y-50670000D01*
X132671800Y-51731800D02*
X132900000Y-51960000D01*
X170773700Y-51733700D02*
X152226300Y-51733700D01*
X183843200Y-51725100D02*
X184898300Y-50670000D01*
X242000000Y-54710000D02*
X244500000Y-52210000D01*
X133149900Y-51710100D02*
X132900000Y-51960000D01*
X200247000Y-54710000D02*
X197396800Y-51859800D01*
X113978200Y-51731800D02*
X132671800Y-51731800D01*
X171000000Y-51960000D02*
X170773700Y-51733700D01*
X230000000Y-54710000D02*
X242000000Y-54710000D01*
X152000000Y-51960000D02*
X151750100Y-51710100D01*
X151750100Y-51710100D02*
X133149900Y-51710100D01*
X230000000Y-54710000D02*
X200247000Y-54710000D01*
X197396800Y-51859800D02*
X186811400Y-51859800D01*
X186809900Y-51858300D02*
X186086600Y-51858300D01*
X171000000Y-51960000D02*
X171234900Y-51725100D01*
X186250000Y-50670000D02*
X184898300Y-50670000D01*
X152226300Y-51733700D02*
X152000000Y-51960000D01*
X186811400Y-51859800D02*
X186809900Y-51858300D01*
%TO.N,+5V*%
X134466400Y-65429100D02*
X135552200Y-64343300D01*
X141980400Y-63709000D02*
X141346100Y-64343300D01*
X200864500Y-63709000D02*
X141980400Y-63709000D01*
X112714100Y-65429100D02*
X134466400Y-65429100D01*
X202840400Y-61733100D02*
X207523500Y-61733100D01*
X111250000Y-61875000D02*
X111250000Y-63965000D01*
X135552200Y-64343300D02*
X141346100Y-64343300D01*
X200864500Y-63709000D02*
X202840400Y-61733100D01*
X111250000Y-63965000D02*
X112714100Y-65429100D01*
D21*
%TO.N,/LED_DATA*%
X118870000Y-43402600D02*
X119027100Y-43245500D01*
X118870000Y-46625000D02*
X118870000Y-43402600D01*
X178283300Y-47066100D02*
X200864500Y-47066100D01*
X119027100Y-43245500D02*
X174462700Y-43245500D01*
X174462700Y-43245500D02*
X178283300Y-47066100D01*
%TO.N,Net-(D1-DOUT)*%
X198978100Y-69442100D02*
X143140900Y-69442100D01*
X200128300Y-68291900D02*
X198978100Y-69442100D01*
X143140900Y-69442100D02*
X142981000Y-69282200D01*
%TO.N,Net-(D2-DIN)*%
X212909300Y-69910700D02*
X216179800Y-66640200D01*
X135075400Y-68332200D02*
X136653900Y-69910700D01*
X136653900Y-69910700D02*
X212909300Y-69910700D01*
%TO.N,Net-(D2-DOUT)*%
X149925700Y-64532000D02*
X207323900Y-64532000D01*
X207323900Y-64532000D02*
X207749700Y-64957800D01*
%TO.N,/SDA*%
X186086700Y-58453300D02*
X125611100Y-58453300D01*
X186250000Y-58290000D02*
X186086700Y-58453300D01*
%TO.N,/SCL*%
X184905800Y-57094200D02*
X127517400Y-57094200D01*
X186250000Y-55750000D02*
X184905800Y-57094200D01*
X126289500Y-55866300D02*
X127517400Y-57094200D01*
%TO.N,/VCC*%
X116330000Y-61875000D02*
X116330000Y-60698300D01*
X116331500Y-60696800D02*
X116330000Y-60698300D01*
X181480000Y-60246600D02*
X120272700Y-60246600D01*
X119822500Y-60696800D02*
X116331500Y-60696800D01*
X119822500Y-60696800D02*
X120272700Y-60246600D01*
X181897600Y-60664200D02*
X181480000Y-60246600D01*
%TO.N,/KEY3*%
X158350000Y-49420000D02*
X141769600Y-49420000D01*
X135555600Y-50878500D02*
X134731200Y-50054100D01*
X141769600Y-49420000D02*
X140311100Y-50878500D01*
X134731200Y-50054100D02*
X122423300Y-50054100D01*
X140311100Y-50878500D02*
X135555600Y-50878500D01*
%TO.N,/KEY4*%
X119508300Y-61875000D02*
X118870000Y-61875000D01*
X175687300Y-60698300D02*
X120685000Y-60698300D01*
X120685000Y-60698300D02*
X119508300Y-61875000D01*
X177000500Y-62011500D02*
X175687300Y-60698300D01*
%TO.N,/ENC_SW*%
X120675000Y-54597000D02*
X125553200Y-59475200D01*
X230077300Y-59475200D02*
X232342500Y-57210000D01*
X232342500Y-57210000D02*
X244500000Y-57210000D01*
X125553200Y-59475200D02*
X230077300Y-59475200D01*
X120675000Y-53983800D02*
X120675000Y-54597000D01*
%TO.N,/ENC_A*%
X230000000Y-52210000D02*
X228673300Y-52210000D01*
X111250000Y-46625000D02*
X111250000Y-47701700D01*
X111525000Y-47976700D02*
X111250000Y-47701700D01*
X228673300Y-52210000D02*
X224440000Y-47976700D01*
X224440000Y-47976700D02*
X111525000Y-47976700D01*
%TO.N,/ENC_B*%
X185732600Y-57020000D02*
X229810000Y-57020000D01*
X124510100Y-57545900D02*
X185206700Y-57545900D01*
X229810000Y-57020000D02*
X230000000Y-57210000D01*
X123253000Y-56288800D02*
X124510100Y-57545900D01*
X185206700Y-57545900D02*
X185732600Y-57020000D01*
%TD*%
M02*
