M48
; DRILL file {KiCad 9.0.7} date 2026-03-04T14:21:55+0530
; FORMAT={-:-/ absolute / metric / decimal}
; #@! TF.CreationDate,2026-03-04T14:21:55+05:30
; #@! TF.GenerationSoftware,Kicad,Pcbnew,9.0.7
; #@! TF.FileFunction,Plated,1,2,PTH
FMAT,2
METRIC
; #@! TA.AperFunction,Plated,PTH,ViaDrill
T1C0.300
; #@! TA.AperFunction,Plated,PTH,ComponentDrill
T2C1.000
; #@! TA.AperFunction,Plated,PTH,ComponentDrill
T3C1.500
%
G90
G05
T1
X120.675Y-53.984
X122.423Y-50.054
X123.253Y-56.289
X125.611Y-58.453
X126.289Y-55.866
X135.075Y-68.332
X141.346Y-64.343
X142.981Y-69.282
X149.926Y-64.532
X177.0Y-62.011
X181.898Y-60.664
X200.128Y-68.292
X200.864Y-47.066
X200.864Y-63.709
X207.523Y-61.733
X207.75Y-64.958
X216.18Y-66.64
T2
X111.25Y-46.625
X111.25Y-61.875
X113.79Y-46.625
X113.79Y-61.875
X116.33Y-46.625
X116.33Y-61.875
X118.87Y-46.625
X118.87Y-61.875
X121.41Y-46.625
X121.41Y-61.875
X123.95Y-46.625
X123.95Y-61.875
X126.49Y-46.625
X126.49Y-61.875
X186.25Y-50.67
X186.25Y-53.21
X186.25Y-55.75
X186.25Y-58.29
X230.0Y-52.21
X230.0Y-54.71
X230.0Y-57.21
X244.5Y-52.21
X244.5Y-57.21
T3
X113.75Y-51.96
X120.1Y-49.42
X132.9Y-51.96
X139.25Y-49.42
X152.0Y-51.96
X158.35Y-49.42
X171.0Y-51.96
X177.35Y-49.42
T3
G00X236.85Y-49.11
M15
G01X238.15Y-49.11
M16
G05
G00X236.85Y-60.31
M15
G01X238.15Y-60.31
M16
G05
M30
