%TF.GenerationSoftware,KiCad,Pcbnew,9.0.7*%
%TF.CreationDate,2026-03-04T14:21:46+05:30*%
%TF.ProjectId,XeonPad,58656f6e-5061-4642-9e6b-696361645f70,rev?*%
%TF.SameCoordinates,Original*%
%TF.FileFunction,Legend,Top*%
%TF.FilePolarity,Positive*%
%FSLAX46Y46*%
G04 Gerber Fmt 4.6, Leading zero omitted, Abs format (unit mm)*
G04 Created by KiCad (PCBNEW 9.0.7) date 2026-03-04 14:21:46*
%MOMM*%
%LPD*%
G01*
G04 APERTURE LIST*
%ADD10C,0.100000*%
%ADD11C,0.150000*%
%ADD12C,0.200000*%
%ADD13C,0.120000*%
G04 APERTURE END LIST*
D10*
G36*
X154015753Y-39995409D02*
G01*
X154102029Y-40011411D01*
X154153131Y-40036499D01*
X154171878Y-40073930D01*
X154171878Y-40588428D01*
X154153131Y-40625859D01*
X154102029Y-40650946D01*
X154015753Y-40666949D01*
X153878970Y-40673119D01*
X153102278Y-40673119D01*
X153102278Y-41060000D01*
X152622707Y-41060000D01*
X152622707Y-40536343D01*
X153102278Y-40536343D01*
X153688278Y-40536343D01*
X153688278Y-40126015D01*
X153102278Y-40126015D01*
X153102278Y-40536343D01*
X152622707Y-40536343D01*
X152622707Y-39989239D01*
X153878970Y-39989239D01*
X154015753Y-39995409D01*
G37*
G36*
X156154642Y-41060000D02*
G01*
X155654555Y-41060000D01*
X155125891Y-40562477D01*
X155125891Y-40466001D01*
X155597219Y-40466001D01*
X155597219Y-40126015D01*
X154992718Y-40126015D01*
X154992718Y-41060000D01*
X154513147Y-41060000D01*
X154513147Y-39989239D01*
X155785713Y-39989239D01*
X155920369Y-39995373D01*
X156005536Y-40011318D01*
X156056158Y-40036399D01*
X156074774Y-40073930D01*
X156074774Y-40486823D01*
X156057963Y-40522767D01*
X156012502Y-40546987D01*
X155937388Y-40562660D01*
X155843314Y-40568647D01*
X155625795Y-40571514D01*
X156154642Y-41060000D01*
G37*
G36*
X157909192Y-39995392D02*
G01*
X157994940Y-40011367D01*
X158045813Y-40036451D01*
X158064499Y-40073930D01*
X158064499Y-40975308D01*
X158045813Y-41012787D01*
X157994940Y-41037872D01*
X157909192Y-41053846D01*
X157773422Y-41060000D01*
X156732398Y-41060000D01*
X156600067Y-41053904D01*
X156516115Y-41038025D01*
X156466023Y-41012951D01*
X156447550Y-40975308D01*
X156447550Y-40923224D01*
X156927121Y-40923224D01*
X157584928Y-40923224D01*
X157584928Y-40126015D01*
X156927121Y-40126015D01*
X156927121Y-40923224D01*
X156447550Y-40923224D01*
X156447550Y-40073930D01*
X156466023Y-40036288D01*
X156516115Y-40011214D01*
X156600067Y-39995334D01*
X156732398Y-39989239D01*
X157773422Y-39989239D01*
X157909192Y-39995392D01*
G37*
G36*
X159889909Y-40975308D02*
G01*
X159871087Y-41012683D01*
X159819712Y-41037774D01*
X159732803Y-41053809D01*
X159594802Y-41060000D01*
X158684937Y-41060000D01*
X158550382Y-41053867D01*
X158465267Y-41037925D01*
X158414669Y-41012845D01*
X158396058Y-40975308D01*
X158396058Y-40696566D01*
X158873431Y-40696566D01*
X158873431Y-40923224D01*
X159410521Y-40923224D01*
X159410521Y-39989239D01*
X159889909Y-39989239D01*
X159889909Y-40975308D01*
G37*
G36*
X161602295Y-41060000D02*
G01*
X160272393Y-41060000D01*
X160272393Y-39989239D01*
X161590022Y-39989239D01*
X161590022Y-40129923D01*
X160751964Y-40129923D01*
X160751964Y-40442554D01*
X161473335Y-40442554D01*
X161473335Y-40579330D01*
X160751964Y-40579330D01*
X160751964Y-40919316D01*
X161602295Y-40919316D01*
X161602295Y-41060000D01*
G37*
G36*
X163509221Y-40975308D02*
G01*
X163490468Y-41012735D01*
X163439343Y-41037823D01*
X163353015Y-41053827D01*
X163216130Y-41060000D01*
X162216139Y-41060000D01*
X162083808Y-41053904D01*
X161999856Y-41038025D01*
X161949763Y-41012951D01*
X161931290Y-40975308D01*
X161931290Y-40073930D01*
X161949763Y-40036288D01*
X161999856Y-40011214D01*
X162083808Y-39995334D01*
X162216139Y-39989239D01*
X163216130Y-39989239D01*
X163353015Y-39995411D01*
X163439343Y-40011416D01*
X163490468Y-40036503D01*
X163509221Y-40073930D01*
X163509221Y-40340949D01*
X163031666Y-40340949D01*
X163031666Y-40126015D01*
X162410861Y-40126015D01*
X162410861Y-40923224D01*
X163031666Y-40923224D01*
X163031666Y-40700474D01*
X163509221Y-40700474D01*
X163509221Y-40975308D01*
G37*
G36*
X165279677Y-40129923D02*
G01*
X164751013Y-40129923D01*
X164751013Y-41060000D01*
X164273457Y-41060000D01*
X164273457Y-40129923D01*
X163744794Y-40129923D01*
X163744794Y-39989239D01*
X165279677Y-39989239D01*
X165279677Y-40129923D01*
G37*
G36*
X165948658Y-40626224D02*
G01*
X165487588Y-40626224D01*
X165487588Y-40458185D01*
X165948658Y-40458185D01*
X165948658Y-40626224D01*
G37*
G36*
X165948658Y-41060000D02*
G01*
X165487588Y-41060000D01*
X165487588Y-40895868D01*
X165948658Y-40895868D01*
X165948658Y-41060000D01*
G37*
G36*
X168758489Y-41060000D02*
G01*
X168239900Y-41060000D01*
X167887458Y-40683011D01*
X167533000Y-41060000D01*
X167022655Y-41060000D01*
X167022655Y-41054504D01*
X167621111Y-40511980D01*
X167059474Y-39989239D01*
X167571835Y-39989239D01*
X167891671Y-40338201D01*
X168213339Y-39989239D01*
X168721669Y-39989239D01*
X168721669Y-39995406D01*
X168160033Y-40507889D01*
X168758489Y-41060000D01*
G37*
G36*
X170336420Y-41060000D02*
G01*
X169006517Y-41060000D01*
X169006517Y-39989239D01*
X170324146Y-39989239D01*
X170324146Y-40129923D01*
X169486088Y-40129923D01*
X169486088Y-40442554D01*
X170207459Y-40442554D01*
X170207459Y-40579330D01*
X169486088Y-40579330D01*
X169486088Y-40919316D01*
X170336420Y-40919316D01*
X170336420Y-41060000D01*
G37*
G36*
X172127057Y-39995392D02*
G01*
X172212805Y-40011367D01*
X172263678Y-40036451D01*
X172282363Y-40073930D01*
X172282363Y-40975308D01*
X172263678Y-41012787D01*
X172212805Y-41037872D01*
X172127057Y-41053846D01*
X171991287Y-41060000D01*
X170950263Y-41060000D01*
X170817932Y-41053904D01*
X170733980Y-41038025D01*
X170683887Y-41012951D01*
X170665415Y-40975308D01*
X170665415Y-40923224D01*
X171144986Y-40923224D01*
X171802793Y-40923224D01*
X171802793Y-40126015D01*
X171144986Y-40126015D01*
X171144986Y-40923224D01*
X170665415Y-40923224D01*
X170665415Y-40073930D01*
X170683887Y-40036288D01*
X170733980Y-40011214D01*
X170817932Y-39995334D01*
X170950263Y-39989239D01*
X171991287Y-39989239D01*
X172127057Y-39995392D01*
G37*
G36*
X174292238Y-41060000D02*
G01*
X173872201Y-41060000D01*
X173103752Y-40386072D01*
X173127792Y-40432885D01*
X173134344Y-40463375D01*
X173134344Y-41060000D01*
X172667229Y-41060000D01*
X172667229Y-39989239D01*
X173087266Y-39989239D01*
X173855715Y-40649488D01*
X173831675Y-40602676D01*
X173825123Y-40572185D01*
X173825123Y-39989239D01*
X174292238Y-39989239D01*
X174292238Y-41060000D01*
G37*
G36*
X177132660Y-39999497D02*
G01*
X175866139Y-41060000D01*
X175429616Y-41060000D01*
X175429616Y-41050413D01*
X176696137Y-39989239D01*
X177132660Y-39989239D01*
X177132660Y-39999497D01*
G37*
G36*
X178996721Y-39999497D02*
G01*
X177730200Y-41060000D01*
X177293677Y-41060000D01*
X177293677Y-41050413D01*
X178560198Y-39989239D01*
X178996721Y-39989239D01*
X178996721Y-39999497D01*
G37*
G36*
X181739691Y-40975308D02*
G01*
X181720869Y-41012683D01*
X181669494Y-41037774D01*
X181582585Y-41053809D01*
X181444584Y-41060000D01*
X180426092Y-41060000D01*
X180290423Y-41053848D01*
X180204728Y-41037876D01*
X180153878Y-41012792D01*
X180135198Y-40975308D01*
X180135198Y-39989239D01*
X180614769Y-39989239D01*
X180614769Y-40923224D01*
X181260303Y-40923224D01*
X181260303Y-39989239D01*
X181739691Y-39989239D01*
X181739691Y-40975308D01*
G37*
G36*
X183750298Y-41060000D02*
G01*
X183330261Y-41060000D01*
X182561812Y-40386072D01*
X182585852Y-40432885D01*
X182592404Y-40463375D01*
X182592404Y-41060000D01*
X182125289Y-41060000D01*
X182125289Y-39989239D01*
X182545326Y-39989239D01*
X183313775Y-40649488D01*
X183289735Y-40602676D01*
X183283183Y-40572185D01*
X183283183Y-39989239D01*
X183750298Y-39989239D01*
X183750298Y-41060000D01*
G37*
G36*
X184623527Y-41060000D02*
G01*
X184143956Y-41060000D01*
X184143956Y-39989239D01*
X184623527Y-39989239D01*
X184623527Y-41060000D01*
G37*
G36*
X186408637Y-40129923D02*
G01*
X185879973Y-40129923D01*
X185879973Y-41060000D01*
X185402418Y-41060000D01*
X185402418Y-40129923D01*
X184873754Y-40129923D01*
X184873754Y-39989239D01*
X186408637Y-39989239D01*
X186408637Y-40129923D01*
G37*
G36*
X187077618Y-40626224D02*
G01*
X186616549Y-40626224D01*
X186616549Y-40458185D01*
X187077618Y-40458185D01*
X187077618Y-40626224D01*
G37*
G36*
X187077618Y-41060000D02*
G01*
X186616549Y-41060000D01*
X186616549Y-40895868D01*
X187077618Y-40895868D01*
X187077618Y-41060000D01*
G37*
G36*
X189901737Y-41060000D02*
G01*
X189418136Y-41060000D01*
X189418136Y-40579330D01*
X188768572Y-40579330D01*
X188768572Y-41060000D01*
X188289002Y-41060000D01*
X188289002Y-39989239D01*
X188768572Y-39989239D01*
X188768572Y-40430830D01*
X189418136Y-40430830D01*
X189418136Y-39989239D01*
X189901737Y-39989239D01*
X189901737Y-41060000D01*
G37*
G36*
X191743665Y-39995392D02*
G01*
X191829413Y-40011367D01*
X191880287Y-40036451D01*
X191898972Y-40073930D01*
X191898972Y-40975308D01*
X191880287Y-41012787D01*
X191829413Y-41037872D01*
X191743665Y-41053846D01*
X191607896Y-41060000D01*
X190566871Y-41060000D01*
X190434540Y-41053904D01*
X190350588Y-41038025D01*
X190300496Y-41012951D01*
X190282023Y-40975308D01*
X190282023Y-40923224D01*
X190761594Y-40923224D01*
X191419401Y-40923224D01*
X191419401Y-40126015D01*
X190761594Y-40126015D01*
X190761594Y-40923224D01*
X190282023Y-40923224D01*
X190282023Y-40073930D01*
X190300496Y-40036288D01*
X190350588Y-40011214D01*
X190434540Y-39995334D01*
X190566871Y-39989239D01*
X191607896Y-39989239D01*
X191743665Y-39995392D01*
G37*
G36*
X193925333Y-41060000D02*
G01*
X193425245Y-41060000D01*
X192896582Y-40562477D01*
X192896582Y-40466001D01*
X193367909Y-40466001D01*
X193367909Y-40126015D01*
X192763408Y-40126015D01*
X192763408Y-41060000D01*
X192283838Y-41060000D01*
X192283838Y-39989239D01*
X193556404Y-39989239D01*
X193691060Y-39995373D01*
X193776227Y-40011318D01*
X193826848Y-40036399D01*
X193845465Y-40073930D01*
X193845465Y-40486823D01*
X193828654Y-40522767D01*
X193783192Y-40546987D01*
X193708079Y-40562660D01*
X193614004Y-40568647D01*
X193396486Y-40571514D01*
X193925333Y-41060000D01*
G37*
G36*
X194705872Y-41060000D02*
G01*
X194226301Y-41060000D01*
X194226301Y-39989239D01*
X194705872Y-39989239D01*
X194705872Y-41060000D01*
G37*
G36*
X196458192Y-41060000D02*
G01*
X194984675Y-41060000D01*
X194984675Y-40974209D01*
X195882267Y-40133831D01*
X195056482Y-40133831D01*
X195056482Y-39989239D01*
X196454162Y-39989239D01*
X196454162Y-40081929D01*
X195558585Y-40915408D01*
X196458192Y-40915408D01*
X196458192Y-41060000D01*
G37*
G36*
X198197538Y-39995392D02*
G01*
X198283286Y-40011367D01*
X198334160Y-40036451D01*
X198352845Y-40073930D01*
X198352845Y-40975308D01*
X198334160Y-41012787D01*
X198283286Y-41037872D01*
X198197538Y-41053846D01*
X198061769Y-41060000D01*
X197020744Y-41060000D01*
X196888413Y-41053904D01*
X196804461Y-41038025D01*
X196754369Y-41012951D01*
X196735896Y-40975308D01*
X196735896Y-40923224D01*
X197215467Y-40923224D01*
X197873274Y-40923224D01*
X197873274Y-40126015D01*
X197215467Y-40126015D01*
X197215467Y-40923224D01*
X196735896Y-40923224D01*
X196735896Y-40073930D01*
X196754369Y-40036288D01*
X196804461Y-40011214D01*
X196888413Y-39995334D01*
X197020744Y-39989239D01*
X198061769Y-39989239D01*
X198197538Y-39995392D01*
G37*
G36*
X200362719Y-41060000D02*
G01*
X199942683Y-41060000D01*
X199174234Y-40386072D01*
X199198274Y-40432885D01*
X199204825Y-40463375D01*
X199204825Y-41060000D01*
X198737711Y-41060000D01*
X198737711Y-39989239D01*
X199157747Y-39989239D01*
X199926196Y-40649488D01*
X199902156Y-40602676D01*
X199895605Y-40572185D01*
X199895605Y-39989239D01*
X200362719Y-39989239D01*
X200362719Y-41060000D01*
G37*
G36*
X202990101Y-40368304D02*
G01*
X202461254Y-41060000D01*
X202012458Y-41060000D01*
X201483794Y-40368304D01*
X201965380Y-40368304D01*
X202237955Y-40825526D01*
X202510530Y-40368304D01*
X202990101Y-40368304D01*
G37*
G36*
X203825411Y-41060000D02*
G01*
X203354084Y-41060000D01*
X203354084Y-40301870D01*
X203169619Y-40301870D01*
X203169619Y-40280376D01*
X203417465Y-39989239D01*
X203825411Y-39989239D01*
X203825411Y-41060000D01*
G37*
G36*
X204654310Y-41060000D02*
G01*
X204193241Y-41060000D01*
X204193241Y-40891960D01*
X204654310Y-40891960D01*
X204654310Y-41060000D01*
G37*
G36*
X206420570Y-39995373D02*
G01*
X206505737Y-40011318D01*
X206556358Y-40036399D01*
X206574975Y-40073930D01*
X206574975Y-40975308D01*
X206556358Y-41012840D01*
X206505737Y-41037921D01*
X206420570Y-41053865D01*
X206285914Y-41060000D01*
X205285922Y-41060000D01*
X205153591Y-41053904D01*
X205069639Y-41038025D01*
X205019547Y-41012951D01*
X205001074Y-40975308D01*
X205001074Y-40923224D01*
X205472402Y-40923224D01*
X206105662Y-40923224D01*
X206105662Y-40126015D01*
X205472402Y-40126015D01*
X205472402Y-40923224D01*
X205001074Y-40923224D01*
X205001074Y-40073930D01*
X205019753Y-40036446D01*
X205070604Y-40011362D01*
X205156299Y-39995391D01*
X205291967Y-39989239D01*
X206285914Y-39989239D01*
X206420570Y-39995373D01*
G37*
D11*
X154476667Y-47033200D02*
X154619524Y-47080819D01*
X154619524Y-47080819D02*
X154857619Y-47080819D01*
X154857619Y-47080819D02*
X154952857Y-47033200D01*
X154952857Y-47033200D02*
X155000476Y-46985580D01*
X155000476Y-46985580D02*
X155048095Y-46890342D01*
X155048095Y-46890342D02*
X155048095Y-46795104D01*
X155048095Y-46795104D02*
X155000476Y-46699866D01*
X155000476Y-46699866D02*
X154952857Y-46652247D01*
X154952857Y-46652247D02*
X154857619Y-46604628D01*
X154857619Y-46604628D02*
X154667143Y-46557009D01*
X154667143Y-46557009D02*
X154571905Y-46509390D01*
X154571905Y-46509390D02*
X154524286Y-46461771D01*
X154524286Y-46461771D02*
X154476667Y-46366533D01*
X154476667Y-46366533D02*
X154476667Y-46271295D01*
X154476667Y-46271295D02*
X154524286Y-46176057D01*
X154524286Y-46176057D02*
X154571905Y-46128438D01*
X154571905Y-46128438D02*
X154667143Y-46080819D01*
X154667143Y-46080819D02*
X154905238Y-46080819D01*
X154905238Y-46080819D02*
X155048095Y-46128438D01*
X155381429Y-46080819D02*
X155619524Y-47080819D01*
X155619524Y-47080819D02*
X155810000Y-46366533D01*
X155810000Y-46366533D02*
X156000476Y-47080819D01*
X156000476Y-47080819D02*
X156238572Y-46080819D01*
X156524286Y-46080819D02*
X157143333Y-46080819D01*
X157143333Y-46080819D02*
X156810000Y-46461771D01*
X156810000Y-46461771D02*
X156952857Y-46461771D01*
X156952857Y-46461771D02*
X157048095Y-46509390D01*
X157048095Y-46509390D02*
X157095714Y-46557009D01*
X157095714Y-46557009D02*
X157143333Y-46652247D01*
X157143333Y-46652247D02*
X157143333Y-46890342D01*
X157143333Y-46890342D02*
X157095714Y-46985580D01*
X157095714Y-46985580D02*
X157048095Y-47033200D01*
X157048095Y-47033200D02*
X156952857Y-47080819D01*
X156952857Y-47080819D02*
X156667143Y-47080819D01*
X156667143Y-47080819D02*
X156571905Y-47033200D01*
X156571905Y-47033200D02*
X156524286Y-46985580D01*
D12*
X203861905Y-64102219D02*
X203861905Y-63102219D01*
X203861905Y-63102219D02*
X204100000Y-63102219D01*
X204100000Y-63102219D02*
X204242857Y-63149838D01*
X204242857Y-63149838D02*
X204338095Y-63245076D01*
X204338095Y-63245076D02*
X204385714Y-63340314D01*
X204385714Y-63340314D02*
X204433333Y-63530790D01*
X204433333Y-63530790D02*
X204433333Y-63673647D01*
X204433333Y-63673647D02*
X204385714Y-63864123D01*
X204385714Y-63864123D02*
X204338095Y-63959361D01*
X204338095Y-63959361D02*
X204242857Y-64054600D01*
X204242857Y-64054600D02*
X204100000Y-64102219D01*
X204100000Y-64102219D02*
X203861905Y-64102219D01*
X205385714Y-64102219D02*
X204814286Y-64102219D01*
X205100000Y-64102219D02*
X205100000Y-63102219D01*
X205100000Y-63102219D02*
X205004762Y-63245076D01*
X205004762Y-63245076D02*
X204909524Y-63340314D01*
X204909524Y-63340314D02*
X204814286Y-63387933D01*
X137611905Y-64102219D02*
X137611905Y-63102219D01*
X137611905Y-63102219D02*
X137850000Y-63102219D01*
X137850000Y-63102219D02*
X137992857Y-63149838D01*
X137992857Y-63149838D02*
X138088095Y-63245076D01*
X138088095Y-63245076D02*
X138135714Y-63340314D01*
X138135714Y-63340314D02*
X138183333Y-63530790D01*
X138183333Y-63530790D02*
X138183333Y-63673647D01*
X138183333Y-63673647D02*
X138135714Y-63864123D01*
X138135714Y-63864123D02*
X138088095Y-63959361D01*
X138088095Y-63959361D02*
X137992857Y-64054600D01*
X137992857Y-64054600D02*
X137850000Y-64102219D01*
X137850000Y-64102219D02*
X137611905Y-64102219D01*
X139040476Y-63435552D02*
X139040476Y-64102219D01*
X138802381Y-63054600D02*
X138564286Y-63768885D01*
X138564286Y-63768885D02*
X139183333Y-63768885D01*
D11*
X116226667Y-47033200D02*
X116369524Y-47080819D01*
X116369524Y-47080819D02*
X116607619Y-47080819D01*
X116607619Y-47080819D02*
X116702857Y-47033200D01*
X116702857Y-47033200D02*
X116750476Y-46985580D01*
X116750476Y-46985580D02*
X116798095Y-46890342D01*
X116798095Y-46890342D02*
X116798095Y-46795104D01*
X116798095Y-46795104D02*
X116750476Y-46699866D01*
X116750476Y-46699866D02*
X116702857Y-46652247D01*
X116702857Y-46652247D02*
X116607619Y-46604628D01*
X116607619Y-46604628D02*
X116417143Y-46557009D01*
X116417143Y-46557009D02*
X116321905Y-46509390D01*
X116321905Y-46509390D02*
X116274286Y-46461771D01*
X116274286Y-46461771D02*
X116226667Y-46366533D01*
X116226667Y-46366533D02*
X116226667Y-46271295D01*
X116226667Y-46271295D02*
X116274286Y-46176057D01*
X116274286Y-46176057D02*
X116321905Y-46128438D01*
X116321905Y-46128438D02*
X116417143Y-46080819D01*
X116417143Y-46080819D02*
X116655238Y-46080819D01*
X116655238Y-46080819D02*
X116798095Y-46128438D01*
X117131429Y-46080819D02*
X117369524Y-47080819D01*
X117369524Y-47080819D02*
X117560000Y-46366533D01*
X117560000Y-46366533D02*
X117750476Y-47080819D01*
X117750476Y-47080819D02*
X117988572Y-46080819D01*
X118893333Y-47080819D02*
X118321905Y-47080819D01*
X118607619Y-47080819D02*
X118607619Y-46080819D01*
X118607619Y-46080819D02*
X118512381Y-46223676D01*
X118512381Y-46223676D02*
X118417143Y-46318914D01*
X118417143Y-46318914D02*
X118321905Y-46366533D01*
X185916666Y-47744819D02*
X185916666Y-48459104D01*
X185916666Y-48459104D02*
X185869047Y-48601961D01*
X185869047Y-48601961D02*
X185773809Y-48697200D01*
X185773809Y-48697200D02*
X185630952Y-48744819D01*
X185630952Y-48744819D02*
X185535714Y-48744819D01*
X186916666Y-48744819D02*
X186345238Y-48744819D01*
X186630952Y-48744819D02*
X186630952Y-47744819D01*
X186630952Y-47744819D02*
X186535714Y-47887676D01*
X186535714Y-47887676D02*
X186440476Y-47982914D01*
X186440476Y-47982914D02*
X186345238Y-48030533D01*
X135376667Y-47033200D02*
X135519524Y-47080819D01*
X135519524Y-47080819D02*
X135757619Y-47080819D01*
X135757619Y-47080819D02*
X135852857Y-47033200D01*
X135852857Y-47033200D02*
X135900476Y-46985580D01*
X135900476Y-46985580D02*
X135948095Y-46890342D01*
X135948095Y-46890342D02*
X135948095Y-46795104D01*
X135948095Y-46795104D02*
X135900476Y-46699866D01*
X135900476Y-46699866D02*
X135852857Y-46652247D01*
X135852857Y-46652247D02*
X135757619Y-46604628D01*
X135757619Y-46604628D02*
X135567143Y-46557009D01*
X135567143Y-46557009D02*
X135471905Y-46509390D01*
X135471905Y-46509390D02*
X135424286Y-46461771D01*
X135424286Y-46461771D02*
X135376667Y-46366533D01*
X135376667Y-46366533D02*
X135376667Y-46271295D01*
X135376667Y-46271295D02*
X135424286Y-46176057D01*
X135424286Y-46176057D02*
X135471905Y-46128438D01*
X135471905Y-46128438D02*
X135567143Y-46080819D01*
X135567143Y-46080819D02*
X135805238Y-46080819D01*
X135805238Y-46080819D02*
X135948095Y-46128438D01*
X136281429Y-46080819D02*
X136519524Y-47080819D01*
X136519524Y-47080819D02*
X136710000Y-46366533D01*
X136710000Y-46366533D02*
X136900476Y-47080819D01*
X136900476Y-47080819D02*
X137138572Y-46080819D01*
X137471905Y-46176057D02*
X137519524Y-46128438D01*
X137519524Y-46128438D02*
X137614762Y-46080819D01*
X137614762Y-46080819D02*
X137852857Y-46080819D01*
X137852857Y-46080819D02*
X137948095Y-46128438D01*
X137948095Y-46128438D02*
X137995714Y-46176057D01*
X137995714Y-46176057D02*
X138043333Y-46271295D01*
X138043333Y-46271295D02*
X138043333Y-46366533D01*
X138043333Y-46366533D02*
X137995714Y-46509390D01*
X137995714Y-46509390D02*
X137424286Y-47080819D01*
X137424286Y-47080819D02*
X138043333Y-47080819D01*
D12*
X145361905Y-64102219D02*
X145361905Y-63102219D01*
X145361905Y-63102219D02*
X145600000Y-63102219D01*
X145600000Y-63102219D02*
X145742857Y-63149838D01*
X145742857Y-63149838D02*
X145838095Y-63245076D01*
X145838095Y-63245076D02*
X145885714Y-63340314D01*
X145885714Y-63340314D02*
X145933333Y-63530790D01*
X145933333Y-63530790D02*
X145933333Y-63673647D01*
X145933333Y-63673647D02*
X145885714Y-63864123D01*
X145885714Y-63864123D02*
X145838095Y-63959361D01*
X145838095Y-63959361D02*
X145742857Y-64054600D01*
X145742857Y-64054600D02*
X145600000Y-64102219D01*
X145600000Y-64102219D02*
X145361905Y-64102219D01*
X146266667Y-63102219D02*
X146885714Y-63102219D01*
X146885714Y-63102219D02*
X146552381Y-63483171D01*
X146552381Y-63483171D02*
X146695238Y-63483171D01*
X146695238Y-63483171D02*
X146790476Y-63530790D01*
X146790476Y-63530790D02*
X146838095Y-63578409D01*
X146838095Y-63578409D02*
X146885714Y-63673647D01*
X146885714Y-63673647D02*
X146885714Y-63911742D01*
X146885714Y-63911742D02*
X146838095Y-64006980D01*
X146838095Y-64006980D02*
X146790476Y-64054600D01*
X146790476Y-64054600D02*
X146695238Y-64102219D01*
X146695238Y-64102219D02*
X146409524Y-64102219D01*
X146409524Y-64102219D02*
X146314286Y-64054600D01*
X146314286Y-64054600D02*
X146266667Y-64006980D01*
D11*
X173476667Y-47033200D02*
X173619524Y-47080819D01*
X173619524Y-47080819D02*
X173857619Y-47080819D01*
X173857619Y-47080819D02*
X173952857Y-47033200D01*
X173952857Y-47033200D02*
X174000476Y-46985580D01*
X174000476Y-46985580D02*
X174048095Y-46890342D01*
X174048095Y-46890342D02*
X174048095Y-46795104D01*
X174048095Y-46795104D02*
X174000476Y-46699866D01*
X174000476Y-46699866D02*
X173952857Y-46652247D01*
X173952857Y-46652247D02*
X173857619Y-46604628D01*
X173857619Y-46604628D02*
X173667143Y-46557009D01*
X173667143Y-46557009D02*
X173571905Y-46509390D01*
X173571905Y-46509390D02*
X173524286Y-46461771D01*
X173524286Y-46461771D02*
X173476667Y-46366533D01*
X173476667Y-46366533D02*
X173476667Y-46271295D01*
X173476667Y-46271295D02*
X173524286Y-46176057D01*
X173524286Y-46176057D02*
X173571905Y-46128438D01*
X173571905Y-46128438D02*
X173667143Y-46080819D01*
X173667143Y-46080819D02*
X173905238Y-46080819D01*
X173905238Y-46080819D02*
X174048095Y-46128438D01*
X174381429Y-46080819D02*
X174619524Y-47080819D01*
X174619524Y-47080819D02*
X174810000Y-46366533D01*
X174810000Y-46366533D02*
X175000476Y-47080819D01*
X175000476Y-47080819D02*
X175238572Y-46080819D01*
X176048095Y-46414152D02*
X176048095Y-47080819D01*
X175810000Y-46033200D02*
X175571905Y-46747485D01*
X175571905Y-46747485D02*
X176190952Y-46747485D01*
X231466667Y-47917200D02*
X231609524Y-47964819D01*
X231609524Y-47964819D02*
X231847619Y-47964819D01*
X231847619Y-47964819D02*
X231942857Y-47917200D01*
X231942857Y-47917200D02*
X231990476Y-47869580D01*
X231990476Y-47869580D02*
X232038095Y-47774342D01*
X232038095Y-47774342D02*
X232038095Y-47679104D01*
X232038095Y-47679104D02*
X231990476Y-47583866D01*
X231990476Y-47583866D02*
X231942857Y-47536247D01*
X231942857Y-47536247D02*
X231847619Y-47488628D01*
X231847619Y-47488628D02*
X231657143Y-47441009D01*
X231657143Y-47441009D02*
X231561905Y-47393390D01*
X231561905Y-47393390D02*
X231514286Y-47345771D01*
X231514286Y-47345771D02*
X231466667Y-47250533D01*
X231466667Y-47250533D02*
X231466667Y-47155295D01*
X231466667Y-47155295D02*
X231514286Y-47060057D01*
X231514286Y-47060057D02*
X231561905Y-47012438D01*
X231561905Y-47012438D02*
X231657143Y-46964819D01*
X231657143Y-46964819D02*
X231895238Y-46964819D01*
X231895238Y-46964819D02*
X232038095Y-47012438D01*
X232371429Y-46964819D02*
X232609524Y-47964819D01*
X232609524Y-47964819D02*
X232800000Y-47250533D01*
X232800000Y-47250533D02*
X232990476Y-47964819D01*
X232990476Y-47964819D02*
X233228572Y-46964819D01*
X234085714Y-46964819D02*
X233609524Y-46964819D01*
X233609524Y-46964819D02*
X233561905Y-47441009D01*
X233561905Y-47441009D02*
X233609524Y-47393390D01*
X233609524Y-47393390D02*
X233704762Y-47345771D01*
X233704762Y-47345771D02*
X233942857Y-47345771D01*
X233942857Y-47345771D02*
X234038095Y-47393390D01*
X234038095Y-47393390D02*
X234085714Y-47441009D01*
X234085714Y-47441009D02*
X234133333Y-47536247D01*
X234133333Y-47536247D02*
X234133333Y-47774342D01*
X234133333Y-47774342D02*
X234085714Y-47869580D01*
X234085714Y-47869580D02*
X234038095Y-47917200D01*
X234038095Y-47917200D02*
X233942857Y-47964819D01*
X233942857Y-47964819D02*
X233704762Y-47964819D01*
X233704762Y-47964819D02*
X233609524Y-47917200D01*
X233609524Y-47917200D02*
X233561905Y-47869580D01*
D12*
X211611905Y-64102219D02*
X211611905Y-63102219D01*
X211611905Y-63102219D02*
X211850000Y-63102219D01*
X211850000Y-63102219D02*
X211992857Y-63149838D01*
X211992857Y-63149838D02*
X212088095Y-63245076D01*
X212088095Y-63245076D02*
X212135714Y-63340314D01*
X212135714Y-63340314D02*
X212183333Y-63530790D01*
X212183333Y-63530790D02*
X212183333Y-63673647D01*
X212183333Y-63673647D02*
X212135714Y-63864123D01*
X212135714Y-63864123D02*
X212088095Y-63959361D01*
X212088095Y-63959361D02*
X211992857Y-64054600D01*
X211992857Y-64054600D02*
X211850000Y-64102219D01*
X211850000Y-64102219D02*
X211611905Y-64102219D01*
X212564286Y-63197457D02*
X212611905Y-63149838D01*
X212611905Y-63149838D02*
X212707143Y-63102219D01*
X212707143Y-63102219D02*
X212945238Y-63102219D01*
X212945238Y-63102219D02*
X213040476Y-63149838D01*
X213040476Y-63149838D02*
X213088095Y-63197457D01*
X213088095Y-63197457D02*
X213135714Y-63292695D01*
X213135714Y-63292695D02*
X213135714Y-63387933D01*
X213135714Y-63387933D02*
X213088095Y-63530790D01*
X213088095Y-63530790D02*
X212516667Y-64102219D01*
X212516667Y-64102219D02*
X213135714Y-64102219D01*
D13*
%TO.C,SW3*%
X148825000Y-47515000D02*
X162795000Y-47515000D01*
X148825000Y-61485000D02*
X148825000Y-47515000D01*
X162795000Y-47515000D02*
X162795000Y-61485000D01*
X162795000Y-61485000D02*
X148825000Y-61485000D01*
%TO.C,SW1*%
X110575000Y-47515000D02*
X124545000Y-47515000D01*
X110575000Y-61485000D02*
X110575000Y-47515000D01*
X124545000Y-47515000D02*
X124545000Y-61485000D01*
X124545000Y-61485000D02*
X110575000Y-61485000D01*
%TO.C,J1*%
X184870000Y-49290000D02*
X186250000Y-49290000D01*
X184870000Y-50670000D02*
X184870000Y-49290000D01*
X184870000Y-51940000D02*
X184870000Y-59670000D01*
X184870000Y-51940000D02*
X187630000Y-51940000D01*
X184870000Y-59670000D02*
X187630000Y-59670000D01*
X187630000Y-51940000D02*
X187630000Y-59670000D01*
%TO.C,SW2*%
X129725000Y-47515000D02*
X143695000Y-47515000D01*
X129725000Y-61485000D02*
X129725000Y-47515000D01*
X143695000Y-47515000D02*
X143695000Y-61485000D01*
X143695000Y-61485000D02*
X129725000Y-61485000D01*
%TO.C,SW4*%
X167825000Y-47515000D02*
X181795000Y-47515000D01*
X167825000Y-61485000D02*
X167825000Y-47515000D01*
X181795000Y-47515000D02*
X181795000Y-61485000D01*
X181795000Y-61485000D02*
X167825000Y-61485000D01*
%TO.C,SW5*%
X229700000Y-50610000D02*
X230300000Y-50610000D01*
X230000000Y-50910000D02*
X229700000Y-50610000D01*
X230300000Y-50610000D02*
X230000000Y-50910000D01*
X231400000Y-48810000D02*
X231400000Y-60610000D01*
X235500000Y-48810000D02*
X231400000Y-48810000D01*
X235500000Y-60610000D02*
X231400000Y-60610000D01*
X237000000Y-54710000D02*
X238000000Y-54710000D01*
X237500000Y-54210000D02*
X237500000Y-55210000D01*
X239500000Y-48810000D02*
X243600000Y-48810000D01*
X243600000Y-48810000D02*
X243600000Y-51210000D01*
X243600000Y-53410000D02*
X243600000Y-56010000D01*
X243600000Y-58210000D02*
X243600000Y-60610000D01*
X243600000Y-60610000D02*
X239500000Y-60610000D01*
X240500000Y-54710000D02*
G75*
G02*
X234500000Y-54710000I-3000000J0D01*
G01*
X234500000Y-54710000D02*
G75*
G02*
X240500000Y-54710000I3000000J0D01*
G01*
%TD*%
%LPC*%
G36*
X111496742Y-61061601D02*
G01*
X111650687Y-61125367D01*
X111789234Y-61217941D01*
X111907059Y-61335766D01*
X111999633Y-61474313D01*
X112063399Y-61628258D01*
X112095907Y-61791685D01*
X112100000Y-61875000D01*
X112100000Y-63875000D01*
X112095907Y-63958315D01*
X112063399Y-64121742D01*
X111999633Y-64275687D01*
X111907059Y-64414234D01*
X111789234Y-64532059D01*
X111650687Y-64624633D01*
X111496742Y-64688399D01*
X111333315Y-64720907D01*
X111166685Y-64720907D01*
X111003258Y-64688399D01*
X110849313Y-64624633D01*
X110710766Y-64532059D01*
X110592941Y-64414234D01*
X110500367Y-64275687D01*
X110436601Y-64121742D01*
X110404093Y-63958315D01*
X110400000Y-63875000D01*
X110400000Y-61875000D01*
X110404093Y-61791685D01*
X110436601Y-61628258D01*
X110500367Y-61474313D01*
X110592941Y-61335766D01*
X110710766Y-61217941D01*
X110849313Y-61125367D01*
X111003258Y-61061601D01*
X111166685Y-61029093D01*
X111333315Y-61029093D01*
X111496742Y-61061601D01*
G37*
G36*
X114036742Y-61061601D02*
G01*
X114190687Y-61125367D01*
X114329234Y-61217941D01*
X114447059Y-61335766D01*
X114539633Y-61474313D01*
X114603399Y-61628258D01*
X114635907Y-61791685D01*
X114640000Y-61875000D01*
X114640000Y-63875000D01*
X114635907Y-63958315D01*
X114603399Y-64121742D01*
X114539633Y-64275687D01*
X114447059Y-64414234D01*
X114329234Y-64532059D01*
X114190687Y-64624633D01*
X114036742Y-64688399D01*
X113873315Y-64720907D01*
X113706685Y-64720907D01*
X113543258Y-64688399D01*
X113389313Y-64624633D01*
X113250766Y-64532059D01*
X113132941Y-64414234D01*
X113040367Y-64275687D01*
X112976601Y-64121742D01*
X112944093Y-63958315D01*
X112940000Y-63875000D01*
X112940000Y-61875000D01*
X112944093Y-61791685D01*
X112976601Y-61628258D01*
X113040367Y-61474313D01*
X113132941Y-61335766D01*
X113250766Y-61217941D01*
X113389313Y-61125367D01*
X113543258Y-61061601D01*
X113706685Y-61029093D01*
X113873315Y-61029093D01*
X114036742Y-61061601D01*
G37*
G36*
X116576742Y-61061601D02*
G01*
X116730687Y-61125367D01*
X116869234Y-61217941D01*
X116987059Y-61335766D01*
X117079633Y-61474313D01*
X117143399Y-61628258D01*
X117175907Y-61791685D01*
X117180000Y-61875000D01*
X117180000Y-63875000D01*
X117175907Y-63958315D01*
X117143399Y-64121742D01*
X117079633Y-64275687D01*
X116987059Y-64414234D01*
X116869234Y-64532059D01*
X116730687Y-64624633D01*
X116576742Y-64688399D01*
X116413315Y-64720907D01*
X116246685Y-64720907D01*
X116083258Y-64688399D01*
X115929313Y-64624633D01*
X115790766Y-64532059D01*
X115672941Y-64414234D01*
X115580367Y-64275687D01*
X115516601Y-64121742D01*
X115484093Y-63958315D01*
X115480000Y-63875000D01*
X115480000Y-61875000D01*
X115484093Y-61791685D01*
X115516601Y-61628258D01*
X115580367Y-61474313D01*
X115672941Y-61335766D01*
X115790766Y-61217941D01*
X115929313Y-61125367D01*
X116083258Y-61061601D01*
X116246685Y-61029093D01*
X116413315Y-61029093D01*
X116576742Y-61061601D01*
G37*
G36*
X119116742Y-61061601D02*
G01*
X119270687Y-61125367D01*
X119409234Y-61217941D01*
X119527059Y-61335766D01*
X119619633Y-61474313D01*
X119683399Y-61628258D01*
X119715907Y-61791685D01*
X119720000Y-61875000D01*
X119720000Y-63875000D01*
X119715907Y-63958315D01*
X119683399Y-64121742D01*
X119619633Y-64275687D01*
X119527059Y-64414234D01*
X119409234Y-64532059D01*
X119270687Y-64624633D01*
X119116742Y-64688399D01*
X118953315Y-64720907D01*
X118786685Y-64720907D01*
X118623258Y-64688399D01*
X118469313Y-64624633D01*
X118330766Y-64532059D01*
X118212941Y-64414234D01*
X118120367Y-64275687D01*
X118056601Y-64121742D01*
X118024093Y-63958315D01*
X118020000Y-63875000D01*
X118020000Y-61875000D01*
X118024093Y-61791685D01*
X118056601Y-61628258D01*
X118120367Y-61474313D01*
X118212941Y-61335766D01*
X118330766Y-61217941D01*
X118469313Y-61125367D01*
X118623258Y-61061601D01*
X118786685Y-61029093D01*
X118953315Y-61029093D01*
X119116742Y-61061601D01*
G37*
G36*
X121656742Y-61111601D02*
G01*
X121810687Y-61175367D01*
X121949234Y-61267941D01*
X122067059Y-61385766D01*
X122159633Y-61524313D01*
X122223399Y-61678258D01*
X122255907Y-61841685D01*
X122260000Y-61925000D01*
X122260000Y-63825000D01*
X122255907Y-63908315D01*
X122223399Y-64071742D01*
X122159633Y-64225687D01*
X122067059Y-64364234D01*
X121949234Y-64482059D01*
X121810687Y-64574633D01*
X121656742Y-64638399D01*
X121493315Y-64670907D01*
X121326685Y-64670907D01*
X121163258Y-64638399D01*
X121009313Y-64574633D01*
X120870766Y-64482059D01*
X120752941Y-64364234D01*
X120660367Y-64225687D01*
X120596601Y-64071742D01*
X120564093Y-63908315D01*
X120560000Y-63825000D01*
X120560000Y-61925000D01*
X120564093Y-61841685D01*
X120596601Y-61678258D01*
X120660367Y-61524313D01*
X120752941Y-61385766D01*
X120870766Y-61267941D01*
X121009313Y-61175367D01*
X121163258Y-61111601D01*
X121326685Y-61079093D01*
X121493315Y-61079093D01*
X121656742Y-61111601D01*
G37*
G36*
X124196742Y-61111601D02*
G01*
X124350687Y-61175367D01*
X124489234Y-61267941D01*
X124607059Y-61385766D01*
X124699633Y-61524313D01*
X124763399Y-61678258D01*
X124795907Y-61841685D01*
X124800000Y-61925000D01*
X124800000Y-63825000D01*
X124795907Y-63908315D01*
X124763399Y-64071742D01*
X124699633Y-64225687D01*
X124607059Y-64364234D01*
X124489234Y-64482059D01*
X124350687Y-64574633D01*
X124196742Y-64638399D01*
X124033315Y-64670907D01*
X123866685Y-64670907D01*
X123703258Y-64638399D01*
X123549313Y-64574633D01*
X123410766Y-64482059D01*
X123292941Y-64364234D01*
X123200367Y-64225687D01*
X123136601Y-64071742D01*
X123104093Y-63908315D01*
X123100000Y-63825000D01*
X123100000Y-61925000D01*
X123104093Y-61841685D01*
X123136601Y-61678258D01*
X123200367Y-61524313D01*
X123292941Y-61385766D01*
X123410766Y-61267941D01*
X123549313Y-61175367D01*
X123703258Y-61111601D01*
X123866685Y-61079093D01*
X124033315Y-61079093D01*
X124196742Y-61111601D01*
G37*
G36*
X126736742Y-61111601D02*
G01*
X126890687Y-61175367D01*
X127029234Y-61267941D01*
X127147059Y-61385766D01*
X127239633Y-61524313D01*
X127303399Y-61678258D01*
X127335907Y-61841685D01*
X127340000Y-61925000D01*
X127340000Y-63825000D01*
X127335907Y-63908315D01*
X127303399Y-64071742D01*
X127239633Y-64225687D01*
X127147059Y-64364234D01*
X127029234Y-64482059D01*
X126890687Y-64574633D01*
X126736742Y-64638399D01*
X126573315Y-64670907D01*
X126406685Y-64670907D01*
X126243258Y-64638399D01*
X126089313Y-64574633D01*
X125950766Y-64482059D01*
X125832941Y-64364234D01*
X125740367Y-64225687D01*
X125676601Y-64071742D01*
X125644093Y-63908315D01*
X125640000Y-63825000D01*
X125640000Y-61925000D01*
X125644093Y-61841685D01*
X125676601Y-61678258D01*
X125740367Y-61524313D01*
X125832941Y-61385766D01*
X125950766Y-61267941D01*
X126089313Y-61175367D01*
X126243258Y-61111601D01*
X126406685Y-61079093D01*
X126573315Y-61079093D01*
X126736742Y-61111601D01*
G37*
G36*
X239100000Y-61310000D02*
G01*
X235900000Y-61310000D01*
X235900000Y-59310000D01*
X239100000Y-59310000D01*
X239100000Y-61310000D01*
G37*
G36*
X186496742Y-57476601D02*
G01*
X186650687Y-57540367D01*
X186789234Y-57632941D01*
X186907059Y-57750766D01*
X186999633Y-57889313D01*
X187063399Y-58043258D01*
X187095907Y-58206685D01*
X187095907Y-58373315D01*
X187063399Y-58536742D01*
X186999633Y-58690687D01*
X186907059Y-58829234D01*
X186789234Y-58947059D01*
X186650687Y-59039633D01*
X186496742Y-59103399D01*
X186333315Y-59135907D01*
X186166685Y-59135907D01*
X186003258Y-59103399D01*
X185849313Y-59039633D01*
X185710766Y-58947059D01*
X185592941Y-58829234D01*
X185500367Y-58690687D01*
X185436601Y-58536742D01*
X185404093Y-58373315D01*
X185404093Y-58206685D01*
X185436601Y-58043258D01*
X185500367Y-57889313D01*
X185592941Y-57750766D01*
X185710766Y-57632941D01*
X185849313Y-57540367D01*
X186003258Y-57476601D01*
X186166685Y-57444093D01*
X186333315Y-57444093D01*
X186496742Y-57476601D01*
G37*
G36*
X230290285Y-56253060D02*
G01*
X230471397Y-56328079D01*
X230634393Y-56436990D01*
X230773010Y-56575607D01*
X230881921Y-56738603D01*
X230956940Y-56919715D01*
X230995185Y-57111983D01*
X230995185Y-57308017D01*
X230956940Y-57500285D01*
X230881921Y-57681397D01*
X230773010Y-57844393D01*
X230634393Y-57983010D01*
X230471397Y-58091921D01*
X230290285Y-58166940D01*
X230098017Y-58205185D01*
X229901983Y-58205185D01*
X229709715Y-58166940D01*
X229528603Y-58091921D01*
X229365607Y-57983010D01*
X229226990Y-57844393D01*
X229118079Y-57681397D01*
X229043060Y-57500285D01*
X229004815Y-57308017D01*
X229004815Y-57111983D01*
X229043060Y-56919715D01*
X229118079Y-56738603D01*
X229226990Y-56575607D01*
X229365607Y-56436990D01*
X229528603Y-56328079D01*
X229709715Y-56253060D01*
X229901983Y-56214815D01*
X230098017Y-56214815D01*
X230290285Y-56253060D01*
G37*
G36*
X244790285Y-56253060D02*
G01*
X244971397Y-56328079D01*
X245134393Y-56436990D01*
X245273010Y-56575607D01*
X245381921Y-56738603D01*
X245456940Y-56919715D01*
X245495185Y-57111983D01*
X245495185Y-57308017D01*
X245456940Y-57500285D01*
X245381921Y-57681397D01*
X245273010Y-57844393D01*
X245134393Y-57983010D01*
X244971397Y-58091921D01*
X244790285Y-58166940D01*
X244598017Y-58205185D01*
X244401983Y-58205185D01*
X244209715Y-58166940D01*
X244028603Y-58091921D01*
X243865607Y-57983010D01*
X243726990Y-57844393D01*
X243618079Y-57681397D01*
X243543060Y-57500285D01*
X243504815Y-57308017D01*
X243504815Y-57111983D01*
X243543060Y-56919715D01*
X243618079Y-56738603D01*
X243726990Y-56575607D01*
X243865607Y-56436990D01*
X244028603Y-56328079D01*
X244209715Y-56253060D01*
X244401983Y-56214815D01*
X244598017Y-56214815D01*
X244790285Y-56253060D01*
G37*
G36*
X186496742Y-54936601D02*
G01*
X186650687Y-55000367D01*
X186789234Y-55092941D01*
X186907059Y-55210766D01*
X186999633Y-55349313D01*
X187063399Y-55503258D01*
X187095907Y-55666685D01*
X187095907Y-55833315D01*
X187063399Y-55996742D01*
X186999633Y-56150687D01*
X186907059Y-56289234D01*
X186789234Y-56407059D01*
X186650687Y-56499633D01*
X186496742Y-56563399D01*
X186333315Y-56595907D01*
X186166685Y-56595907D01*
X186003258Y-56563399D01*
X185849313Y-56499633D01*
X185710766Y-56407059D01*
X185592941Y-56289234D01*
X185500367Y-56150687D01*
X185436601Y-55996742D01*
X185404093Y-55833315D01*
X185404093Y-55666685D01*
X185436601Y-55503258D01*
X185500367Y-55349313D01*
X185592941Y-55210766D01*
X185710766Y-55092941D01*
X185849313Y-55000367D01*
X186003258Y-54936601D01*
X186166685Y-54904093D01*
X186333315Y-54904093D01*
X186496742Y-54936601D01*
G37*
G36*
X117950181Y-52538429D02*
G01*
X118202879Y-52606140D01*
X118444577Y-52706255D01*
X118671140Y-52837061D01*
X118878692Y-52996320D01*
X119063680Y-53181308D01*
X119222939Y-53388860D01*
X119353745Y-53615423D01*
X119453860Y-53857121D01*
X119521571Y-54109819D01*
X119555718Y-54369194D01*
X119555718Y-54630806D01*
X119521571Y-54890181D01*
X119453860Y-55142879D01*
X119353745Y-55384577D01*
X119222939Y-55611140D01*
X119063680Y-55818692D01*
X118878692Y-56003680D01*
X118671140Y-56162939D01*
X118444577Y-56293745D01*
X118202879Y-56393860D01*
X117950181Y-56461571D01*
X117690806Y-56495718D01*
X117429194Y-56495718D01*
X117169819Y-56461571D01*
X116917121Y-56393860D01*
X116675423Y-56293745D01*
X116448860Y-56162939D01*
X116241308Y-56003680D01*
X116056320Y-55818692D01*
X115897061Y-55611140D01*
X115766255Y-55384577D01*
X115666140Y-55142879D01*
X115598429Y-54890181D01*
X115564282Y-54630806D01*
X115564282Y-54369194D01*
X115598429Y-54109819D01*
X115666140Y-53857121D01*
X115766255Y-53615423D01*
X115897061Y-53388860D01*
X116056320Y-53181308D01*
X116241308Y-52996320D01*
X116448860Y-52837061D01*
X116675423Y-52706255D01*
X116917121Y-52606140D01*
X117169819Y-52538429D01*
X117429194Y-52504282D01*
X117690806Y-52504282D01*
X117950181Y-52538429D01*
G37*
G36*
X137100181Y-52538429D02*
G01*
X137352879Y-52606140D01*
X137594577Y-52706255D01*
X137821140Y-52837061D01*
X138028692Y-52996320D01*
X138213680Y-53181308D01*
X138372939Y-53388860D01*
X138503745Y-53615423D01*
X138603860Y-53857121D01*
X138671571Y-54109819D01*
X138705718Y-54369194D01*
X138705718Y-54630806D01*
X138671571Y-54890181D01*
X138603860Y-55142879D01*
X138503745Y-55384577D01*
X138372939Y-55611140D01*
X138213680Y-55818692D01*
X138028692Y-56003680D01*
X137821140Y-56162939D01*
X137594577Y-56293745D01*
X137352879Y-56393860D01*
X137100181Y-56461571D01*
X136840806Y-56495718D01*
X136579194Y-56495718D01*
X136319819Y-56461571D01*
X136067121Y-56393860D01*
X135825423Y-56293745D01*
X135598860Y-56162939D01*
X135391308Y-56003680D01*
X135206320Y-55818692D01*
X135047061Y-55611140D01*
X134916255Y-55384577D01*
X134816140Y-55142879D01*
X134748429Y-54890181D01*
X134714282Y-54630806D01*
X134714282Y-54369194D01*
X134748429Y-54109819D01*
X134816140Y-53857121D01*
X134916255Y-53615423D01*
X135047061Y-53388860D01*
X135206320Y-53181308D01*
X135391308Y-52996320D01*
X135598860Y-52837061D01*
X135825423Y-52706255D01*
X136067121Y-52606140D01*
X136319819Y-52538429D01*
X136579194Y-52504282D01*
X136840806Y-52504282D01*
X137100181Y-52538429D01*
G37*
G36*
X156200181Y-52538429D02*
G01*
X156452879Y-52606140D01*
X156694577Y-52706255D01*
X156921140Y-52837061D01*
X157128692Y-52996320D01*
X157313680Y-53181308D01*
X157472939Y-53388860D01*
X157603745Y-53615423D01*
X157703860Y-53857121D01*
X157771571Y-54109819D01*
X157805718Y-54369194D01*
X157805718Y-54630806D01*
X157771571Y-54890181D01*
X157703860Y-55142879D01*
X157603745Y-55384577D01*
X157472939Y-55611140D01*
X157313680Y-55818692D01*
X157128692Y-56003680D01*
X156921140Y-56162939D01*
X156694577Y-56293745D01*
X156452879Y-56393860D01*
X156200181Y-56461571D01*
X155940806Y-56495718D01*
X155679194Y-56495718D01*
X155419819Y-56461571D01*
X155167121Y-56393860D01*
X154925423Y-56293745D01*
X154698860Y-56162939D01*
X154491308Y-56003680D01*
X154306320Y-55818692D01*
X154147061Y-55611140D01*
X154016255Y-55384577D01*
X153916140Y-55142879D01*
X153848429Y-54890181D01*
X153814282Y-54630806D01*
X153814282Y-54369194D01*
X153848429Y-54109819D01*
X153916140Y-53857121D01*
X154016255Y-53615423D01*
X154147061Y-53388860D01*
X154306320Y-53181308D01*
X154491308Y-52996320D01*
X154698860Y-52837061D01*
X154925423Y-52706255D01*
X155167121Y-52606140D01*
X155419819Y-52538429D01*
X155679194Y-52504282D01*
X155940806Y-52504282D01*
X156200181Y-52538429D01*
G37*
G36*
X175200181Y-52538429D02*
G01*
X175452879Y-52606140D01*
X175694577Y-52706255D01*
X175921140Y-52837061D01*
X176128692Y-52996320D01*
X176313680Y-53181308D01*
X176472939Y-53388860D01*
X176603745Y-53615423D01*
X176703860Y-53857121D01*
X176771571Y-54109819D01*
X176805718Y-54369194D01*
X176805718Y-54630806D01*
X176771571Y-54890181D01*
X176703860Y-55142879D01*
X176603745Y-55384577D01*
X176472939Y-55611140D01*
X176313680Y-55818692D01*
X176128692Y-56003680D01*
X175921140Y-56162939D01*
X175694577Y-56293745D01*
X175452879Y-56393860D01*
X175200181Y-56461571D01*
X174940806Y-56495718D01*
X174679194Y-56495718D01*
X174419819Y-56461571D01*
X174167121Y-56393860D01*
X173925423Y-56293745D01*
X173698860Y-56162939D01*
X173491308Y-56003680D01*
X173306320Y-55818692D01*
X173147061Y-55611140D01*
X173016255Y-55384577D01*
X172916140Y-55142879D01*
X172848429Y-54890181D01*
X172814282Y-54630806D01*
X172814282Y-54369194D01*
X172848429Y-54109819D01*
X172916140Y-53857121D01*
X173016255Y-53615423D01*
X173147061Y-53388860D01*
X173306320Y-53181308D01*
X173491308Y-52996320D01*
X173698860Y-52837061D01*
X173925423Y-52706255D01*
X174167121Y-52606140D01*
X174419819Y-52538429D01*
X174679194Y-52504282D01*
X174940806Y-52504282D01*
X175200181Y-52538429D01*
G37*
G36*
X230290285Y-53753060D02*
G01*
X230471397Y-53828079D01*
X230634393Y-53936990D01*
X230773010Y-54075607D01*
X230881921Y-54238603D01*
X230956940Y-54419715D01*
X230995185Y-54611983D01*
X230995185Y-54808017D01*
X230956940Y-55000285D01*
X230881921Y-55181397D01*
X230773010Y-55344393D01*
X230634393Y-55483010D01*
X230471397Y-55591921D01*
X230290285Y-55666940D01*
X230098017Y-55705185D01*
X229901983Y-55705185D01*
X229709715Y-55666940D01*
X229528603Y-55591921D01*
X229365607Y-55483010D01*
X229226990Y-55344393D01*
X229118079Y-55181397D01*
X229043060Y-55000285D01*
X229004815Y-54808017D01*
X229004815Y-54611983D01*
X229043060Y-54419715D01*
X229118079Y-54238603D01*
X229226990Y-54075607D01*
X229365607Y-53936990D01*
X229528603Y-53828079D01*
X229709715Y-53753060D01*
X229901983Y-53714815D01*
X230098017Y-53714815D01*
X230290285Y-53753060D01*
G37*
G36*
X112726742Y-53686601D02*
G01*
X112880687Y-53750367D01*
X113019234Y-53842941D01*
X113137059Y-53960766D01*
X113229633Y-54099313D01*
X113293399Y-54253258D01*
X113325907Y-54416685D01*
X113325907Y-54583315D01*
X113293399Y-54746742D01*
X113229633Y-54900687D01*
X113137059Y-55039234D01*
X113019234Y-55157059D01*
X112880687Y-55249633D01*
X112726742Y-55313399D01*
X112563315Y-55345907D01*
X112396685Y-55345907D01*
X112233258Y-55313399D01*
X112079313Y-55249633D01*
X111940766Y-55157059D01*
X111822941Y-55039234D01*
X111730367Y-54900687D01*
X111666601Y-54746742D01*
X111634093Y-54583315D01*
X111634093Y-54416685D01*
X111666601Y-54253258D01*
X111730367Y-54099313D01*
X111822941Y-53960766D01*
X111940766Y-53842941D01*
X112079313Y-53750367D01*
X112233258Y-53686601D01*
X112396685Y-53654093D01*
X112563315Y-53654093D01*
X112726742Y-53686601D01*
G37*
G36*
X122886742Y-53686601D02*
G01*
X123040687Y-53750367D01*
X123179234Y-53842941D01*
X123297059Y-53960766D01*
X123389633Y-54099313D01*
X123453399Y-54253258D01*
X123485907Y-54416685D01*
X123485907Y-54583315D01*
X123453399Y-54746742D01*
X123389633Y-54900687D01*
X123297059Y-55039234D01*
X123179234Y-55157059D01*
X123040687Y-55249633D01*
X122886742Y-55313399D01*
X122723315Y-55345907D01*
X122556685Y-55345907D01*
X122393258Y-55313399D01*
X122239313Y-55249633D01*
X122100766Y-55157059D01*
X121982941Y-55039234D01*
X121890367Y-54900687D01*
X121826601Y-54746742D01*
X121794093Y-54583315D01*
X121794093Y-54416685D01*
X121826601Y-54253258D01*
X121890367Y-54099313D01*
X121982941Y-53960766D01*
X122100766Y-53842941D01*
X122239313Y-53750367D01*
X122393258Y-53686601D01*
X122556685Y-53654093D01*
X122723315Y-53654093D01*
X122886742Y-53686601D01*
G37*
G36*
X131876742Y-53686601D02*
G01*
X132030687Y-53750367D01*
X132169234Y-53842941D01*
X132287059Y-53960766D01*
X132379633Y-54099313D01*
X132443399Y-54253258D01*
X132475907Y-54416685D01*
X132475907Y-54583315D01*
X132443399Y-54746742D01*
X132379633Y-54900687D01*
X132287059Y-55039234D01*
X132169234Y-55157059D01*
X132030687Y-55249633D01*
X131876742Y-55313399D01*
X131713315Y-55345907D01*
X131546685Y-55345907D01*
X131383258Y-55313399D01*
X131229313Y-55249633D01*
X131090766Y-55157059D01*
X130972941Y-55039234D01*
X130880367Y-54900687D01*
X130816601Y-54746742D01*
X130784093Y-54583315D01*
X130784093Y-54416685D01*
X130816601Y-54253258D01*
X130880367Y-54099313D01*
X130972941Y-53960766D01*
X131090766Y-53842941D01*
X131229313Y-53750367D01*
X131383258Y-53686601D01*
X131546685Y-53654093D01*
X131713315Y-53654093D01*
X131876742Y-53686601D01*
G37*
G36*
X142036742Y-53686601D02*
G01*
X142190687Y-53750367D01*
X142329234Y-53842941D01*
X142447059Y-53960766D01*
X142539633Y-54099313D01*
X142603399Y-54253258D01*
X142635907Y-54416685D01*
X142635907Y-54583315D01*
X142603399Y-54746742D01*
X142539633Y-54900687D01*
X142447059Y-55039234D01*
X142329234Y-55157059D01*
X142190687Y-55249633D01*
X142036742Y-55313399D01*
X141873315Y-55345907D01*
X141706685Y-55345907D01*
X141543258Y-55313399D01*
X141389313Y-55249633D01*
X141250766Y-55157059D01*
X141132941Y-55039234D01*
X141040367Y-54900687D01*
X140976601Y-54746742D01*
X140944093Y-54583315D01*
X140944093Y-54416685D01*
X140976601Y-54253258D01*
X141040367Y-54099313D01*
X141132941Y-53960766D01*
X141250766Y-53842941D01*
X141389313Y-53750367D01*
X141543258Y-53686601D01*
X141706685Y-53654093D01*
X141873315Y-53654093D01*
X142036742Y-53686601D01*
G37*
G36*
X150976742Y-53686601D02*
G01*
X151130687Y-53750367D01*
X151269234Y-53842941D01*
X151387059Y-53960766D01*
X151479633Y-54099313D01*
X151543399Y-54253258D01*
X151575907Y-54416685D01*
X151575907Y-54583315D01*
X151543399Y-54746742D01*
X151479633Y-54900687D01*
X151387059Y-55039234D01*
X151269234Y-55157059D01*
X151130687Y-55249633D01*
X150976742Y-55313399D01*
X150813315Y-55345907D01*
X150646685Y-55345907D01*
X150483258Y-55313399D01*
X150329313Y-55249633D01*
X150190766Y-55157059D01*
X150072941Y-55039234D01*
X149980367Y-54900687D01*
X149916601Y-54746742D01*
X149884093Y-54583315D01*
X149884093Y-54416685D01*
X149916601Y-54253258D01*
X149980367Y-54099313D01*
X150072941Y-53960766D01*
X150190766Y-53842941D01*
X150329313Y-53750367D01*
X150483258Y-53686601D01*
X150646685Y-53654093D01*
X150813315Y-53654093D01*
X150976742Y-53686601D01*
G37*
G36*
X161136742Y-53686601D02*
G01*
X161290687Y-53750367D01*
X161429234Y-53842941D01*
X161547059Y-53960766D01*
X161639633Y-54099313D01*
X161703399Y-54253258D01*
X161735907Y-54416685D01*
X161735907Y-54583315D01*
X161703399Y-54746742D01*
X161639633Y-54900687D01*
X161547059Y-55039234D01*
X161429234Y-55157059D01*
X161290687Y-55249633D01*
X161136742Y-55313399D01*
X160973315Y-55345907D01*
X160806685Y-55345907D01*
X160643258Y-55313399D01*
X160489313Y-55249633D01*
X160350766Y-55157059D01*
X160232941Y-55039234D01*
X160140367Y-54900687D01*
X160076601Y-54746742D01*
X160044093Y-54583315D01*
X160044093Y-54416685D01*
X160076601Y-54253258D01*
X160140367Y-54099313D01*
X160232941Y-53960766D01*
X160350766Y-53842941D01*
X160489313Y-53750367D01*
X160643258Y-53686601D01*
X160806685Y-53654093D01*
X160973315Y-53654093D01*
X161136742Y-53686601D01*
G37*
G36*
X169976742Y-53686601D02*
G01*
X170130687Y-53750367D01*
X170269234Y-53842941D01*
X170387059Y-53960766D01*
X170479633Y-54099313D01*
X170543399Y-54253258D01*
X170575907Y-54416685D01*
X170575907Y-54583315D01*
X170543399Y-54746742D01*
X170479633Y-54900687D01*
X170387059Y-55039234D01*
X170269234Y-55157059D01*
X170130687Y-55249633D01*
X169976742Y-55313399D01*
X169813315Y-55345907D01*
X169646685Y-55345907D01*
X169483258Y-55313399D01*
X169329313Y-55249633D01*
X169190766Y-55157059D01*
X169072941Y-55039234D01*
X168980367Y-54900687D01*
X168916601Y-54746742D01*
X168884093Y-54583315D01*
X168884093Y-54416685D01*
X168916601Y-54253258D01*
X168980367Y-54099313D01*
X169072941Y-53960766D01*
X169190766Y-53842941D01*
X169329313Y-53750367D01*
X169483258Y-53686601D01*
X169646685Y-53654093D01*
X169813315Y-53654093D01*
X169976742Y-53686601D01*
G37*
G36*
X180136742Y-53686601D02*
G01*
X180290687Y-53750367D01*
X180429234Y-53842941D01*
X180547059Y-53960766D01*
X180639633Y-54099313D01*
X180703399Y-54253258D01*
X180735907Y-54416685D01*
X180735907Y-54583315D01*
X180703399Y-54746742D01*
X180639633Y-54900687D01*
X180547059Y-55039234D01*
X180429234Y-55157059D01*
X180290687Y-55249633D01*
X180136742Y-55313399D01*
X179973315Y-55345907D01*
X179806685Y-55345907D01*
X179643258Y-55313399D01*
X179489313Y-55249633D01*
X179350766Y-55157059D01*
X179232941Y-55039234D01*
X179140367Y-54900687D01*
X179076601Y-54746742D01*
X179044093Y-54583315D01*
X179044093Y-54416685D01*
X179076601Y-54253258D01*
X179140367Y-54099313D01*
X179232941Y-53960766D01*
X179350766Y-53842941D01*
X179489313Y-53750367D01*
X179643258Y-53686601D01*
X179806685Y-53654093D01*
X179973315Y-53654093D01*
X180136742Y-53686601D01*
G37*
G36*
X186496742Y-52396601D02*
G01*
X186650687Y-52460367D01*
X186789234Y-52552941D01*
X186907059Y-52670766D01*
X186999633Y-52809313D01*
X187063399Y-52963258D01*
X187095907Y-53126685D01*
X187095907Y-53293315D01*
X187063399Y-53456742D01*
X186999633Y-53610687D01*
X186907059Y-53749234D01*
X186789234Y-53867059D01*
X186650687Y-53959633D01*
X186496742Y-54023399D01*
X186333315Y-54055907D01*
X186166685Y-54055907D01*
X186003258Y-54023399D01*
X185849313Y-53959633D01*
X185710766Y-53867059D01*
X185592941Y-53749234D01*
X185500367Y-53610687D01*
X185436601Y-53456742D01*
X185404093Y-53293315D01*
X185404093Y-53126685D01*
X185436601Y-52963258D01*
X185500367Y-52809313D01*
X185592941Y-52670766D01*
X185710766Y-52552941D01*
X185849313Y-52460367D01*
X186003258Y-52396601D01*
X186166685Y-52364093D01*
X186333315Y-52364093D01*
X186496742Y-52396601D01*
G37*
G36*
X231000000Y-53210000D02*
G01*
X229000000Y-53210000D01*
X229000000Y-51210000D01*
X231000000Y-51210000D01*
X231000000Y-53210000D01*
G37*
G36*
X244790285Y-51253060D02*
G01*
X244971397Y-51328079D01*
X245134393Y-51436990D01*
X245273010Y-51575607D01*
X245381921Y-51738603D01*
X245456940Y-51919715D01*
X245495185Y-52111983D01*
X245495185Y-52308017D01*
X245456940Y-52500285D01*
X245381921Y-52681397D01*
X245273010Y-52844393D01*
X245134393Y-52983010D01*
X244971397Y-53091921D01*
X244790285Y-53166940D01*
X244598017Y-53205185D01*
X244401983Y-53205185D01*
X244209715Y-53166940D01*
X244028603Y-53091921D01*
X243865607Y-52983010D01*
X243726990Y-52844393D01*
X243618079Y-52681397D01*
X243543060Y-52500285D01*
X243504815Y-52308017D01*
X243504815Y-52111983D01*
X243543060Y-51919715D01*
X243618079Y-51738603D01*
X243726990Y-51575607D01*
X243865607Y-51436990D01*
X244028603Y-51328079D01*
X244209715Y-51253060D01*
X244401983Y-51214815D01*
X244598017Y-51214815D01*
X244790285Y-51253060D01*
G37*
G36*
X114006790Y-50890393D02*
G01*
X114170952Y-50943733D01*
X114324748Y-51022096D01*
X114464393Y-51123553D01*
X114586447Y-51245607D01*
X114687904Y-51385252D01*
X114766267Y-51539048D01*
X114819607Y-51703210D01*
X114846609Y-51873695D01*
X114846609Y-52046305D01*
X114819607Y-52216790D01*
X114766267Y-52380952D01*
X114687904Y-52534748D01*
X114586447Y-52674393D01*
X114464393Y-52796447D01*
X114324748Y-52897904D01*
X114170952Y-52976267D01*
X114006790Y-53029607D01*
X113836305Y-53056609D01*
X113663695Y-53056609D01*
X113493210Y-53029607D01*
X113329048Y-52976267D01*
X113175252Y-52897904D01*
X113035607Y-52796447D01*
X112913553Y-52674393D01*
X112812096Y-52534748D01*
X112733733Y-52380952D01*
X112680393Y-52216790D01*
X112653391Y-52046305D01*
X112653391Y-51873695D01*
X112680393Y-51703210D01*
X112733733Y-51539048D01*
X112812096Y-51385252D01*
X112913553Y-51245607D01*
X113035607Y-51123553D01*
X113175252Y-51022096D01*
X113329048Y-50943733D01*
X113493210Y-50890393D01*
X113663695Y-50863391D01*
X113836305Y-50863391D01*
X114006790Y-50890393D01*
G37*
G36*
X133156790Y-50890393D02*
G01*
X133320952Y-50943733D01*
X133474748Y-51022096D01*
X133614393Y-51123553D01*
X133736447Y-51245607D01*
X133837904Y-51385252D01*
X133916267Y-51539048D01*
X133969607Y-51703210D01*
X133996609Y-51873695D01*
X133996609Y-52046305D01*
X133969607Y-52216790D01*
X133916267Y-52380952D01*
X133837904Y-52534748D01*
X133736447Y-52674393D01*
X133614393Y-52796447D01*
X133474748Y-52897904D01*
X133320952Y-52976267D01*
X133156790Y-53029607D01*
X132986305Y-53056609D01*
X132813695Y-53056609D01*
X132643210Y-53029607D01*
X132479048Y-52976267D01*
X132325252Y-52897904D01*
X132185607Y-52796447D01*
X132063553Y-52674393D01*
X131962096Y-52534748D01*
X131883733Y-52380952D01*
X131830393Y-52216790D01*
X131803391Y-52046305D01*
X131803391Y-51873695D01*
X131830393Y-51703210D01*
X131883733Y-51539048D01*
X131962096Y-51385252D01*
X132063553Y-51245607D01*
X132185607Y-51123553D01*
X132325252Y-51022096D01*
X132479048Y-50943733D01*
X132643210Y-50890393D01*
X132813695Y-50863391D01*
X132986305Y-50863391D01*
X133156790Y-50890393D01*
G37*
G36*
X152256790Y-50890393D02*
G01*
X152420952Y-50943733D01*
X152574748Y-51022096D01*
X152714393Y-51123553D01*
X152836447Y-51245607D01*
X152937904Y-51385252D01*
X153016267Y-51539048D01*
X153069607Y-51703210D01*
X153096609Y-51873695D01*
X153096609Y-52046305D01*
X153069607Y-52216790D01*
X153016267Y-52380952D01*
X152937904Y-52534748D01*
X152836447Y-52674393D01*
X152714393Y-52796447D01*
X152574748Y-52897904D01*
X152420952Y-52976267D01*
X152256790Y-53029607D01*
X152086305Y-53056609D01*
X151913695Y-53056609D01*
X151743210Y-53029607D01*
X151579048Y-52976267D01*
X151425252Y-52897904D01*
X151285607Y-52796447D01*
X151163553Y-52674393D01*
X151062096Y-52534748D01*
X150983733Y-52380952D01*
X150930393Y-52216790D01*
X150903391Y-52046305D01*
X150903391Y-51873695D01*
X150930393Y-51703210D01*
X150983733Y-51539048D01*
X151062096Y-51385252D01*
X151163553Y-51245607D01*
X151285607Y-51123553D01*
X151425252Y-51022096D01*
X151579048Y-50943733D01*
X151743210Y-50890393D01*
X151913695Y-50863391D01*
X152086305Y-50863391D01*
X152256790Y-50890393D01*
G37*
G36*
X171256790Y-50890393D02*
G01*
X171420952Y-50943733D01*
X171574748Y-51022096D01*
X171714393Y-51123553D01*
X171836447Y-51245607D01*
X171937904Y-51385252D01*
X172016267Y-51539048D01*
X172069607Y-51703210D01*
X172096609Y-51873695D01*
X172096609Y-52046305D01*
X172069607Y-52216790D01*
X172016267Y-52380952D01*
X171937904Y-52534748D01*
X171836447Y-52674393D01*
X171714393Y-52796447D01*
X171574748Y-52897904D01*
X171420952Y-52976267D01*
X171256790Y-53029607D01*
X171086305Y-53056609D01*
X170913695Y-53056609D01*
X170743210Y-53029607D01*
X170579048Y-52976267D01*
X170425252Y-52897904D01*
X170285607Y-52796447D01*
X170163553Y-52674393D01*
X170062096Y-52534748D01*
X169983733Y-52380952D01*
X169930393Y-52216790D01*
X169903391Y-52046305D01*
X169903391Y-51873695D01*
X169930393Y-51703210D01*
X169983733Y-51539048D01*
X170062096Y-51385252D01*
X170163553Y-51245607D01*
X170285607Y-51123553D01*
X170425252Y-51022096D01*
X170579048Y-50943733D01*
X170743210Y-50890393D01*
X170913695Y-50863391D01*
X171086305Y-50863391D01*
X171256790Y-50890393D01*
G37*
G36*
X187100000Y-51520000D02*
G01*
X185400000Y-51520000D01*
X185400000Y-49820000D01*
X187100000Y-49820000D01*
X187100000Y-51520000D01*
G37*
G36*
X120356790Y-48350393D02*
G01*
X120520952Y-48403733D01*
X120674748Y-48482096D01*
X120814393Y-48583553D01*
X120936447Y-48705607D01*
X121037904Y-48845252D01*
X121116267Y-48999048D01*
X121169607Y-49163210D01*
X121196609Y-49333695D01*
X121196609Y-49506305D01*
X121169607Y-49676790D01*
X121116267Y-49840952D01*
X121037904Y-49994748D01*
X120936447Y-50134393D01*
X120814393Y-50256447D01*
X120674748Y-50357904D01*
X120520952Y-50436267D01*
X120356790Y-50489607D01*
X120186305Y-50516609D01*
X120013695Y-50516609D01*
X119843210Y-50489607D01*
X119679048Y-50436267D01*
X119525252Y-50357904D01*
X119385607Y-50256447D01*
X119263553Y-50134393D01*
X119162096Y-49994748D01*
X119083733Y-49840952D01*
X119030393Y-49676790D01*
X119003391Y-49506305D01*
X119003391Y-49333695D01*
X119030393Y-49163210D01*
X119083733Y-48999048D01*
X119162096Y-48845252D01*
X119263553Y-48705607D01*
X119385607Y-48583553D01*
X119525252Y-48482096D01*
X119679048Y-48403733D01*
X119843210Y-48350393D01*
X120013695Y-48323391D01*
X120186305Y-48323391D01*
X120356790Y-48350393D01*
G37*
G36*
X139506790Y-48350393D02*
G01*
X139670952Y-48403733D01*
X139824748Y-48482096D01*
X139964393Y-48583553D01*
X140086447Y-48705607D01*
X140187904Y-48845252D01*
X140266267Y-48999048D01*
X140319607Y-49163210D01*
X140346609Y-49333695D01*
X140346609Y-49506305D01*
X140319607Y-49676790D01*
X140266267Y-49840952D01*
X140187904Y-49994748D01*
X140086447Y-50134393D01*
X139964393Y-50256447D01*
X139824748Y-50357904D01*
X139670952Y-50436267D01*
X139506790Y-50489607D01*
X139336305Y-50516609D01*
X139163695Y-50516609D01*
X138993210Y-50489607D01*
X138829048Y-50436267D01*
X138675252Y-50357904D01*
X138535607Y-50256447D01*
X138413553Y-50134393D01*
X138312096Y-49994748D01*
X138233733Y-49840952D01*
X138180393Y-49676790D01*
X138153391Y-49506305D01*
X138153391Y-49333695D01*
X138180393Y-49163210D01*
X138233733Y-48999048D01*
X138312096Y-48845252D01*
X138413553Y-48705607D01*
X138535607Y-48583553D01*
X138675252Y-48482096D01*
X138829048Y-48403733D01*
X138993210Y-48350393D01*
X139163695Y-48323391D01*
X139336305Y-48323391D01*
X139506790Y-48350393D01*
G37*
G36*
X158606790Y-48350393D02*
G01*
X158770952Y-48403733D01*
X158924748Y-48482096D01*
X159064393Y-48583553D01*
X159186447Y-48705607D01*
X159287904Y-48845252D01*
X159366267Y-48999048D01*
X159419607Y-49163210D01*
X159446609Y-49333695D01*
X159446609Y-49506305D01*
X159419607Y-49676790D01*
X159366267Y-49840952D01*
X159287904Y-49994748D01*
X159186447Y-50134393D01*
X159064393Y-50256447D01*
X158924748Y-50357904D01*
X158770952Y-50436267D01*
X158606790Y-50489607D01*
X158436305Y-50516609D01*
X158263695Y-50516609D01*
X158093210Y-50489607D01*
X157929048Y-50436267D01*
X157775252Y-50357904D01*
X157635607Y-50256447D01*
X157513553Y-50134393D01*
X157412096Y-49994748D01*
X157333733Y-49840952D01*
X157280393Y-49676790D01*
X157253391Y-49506305D01*
X157253391Y-49333695D01*
X157280393Y-49163210D01*
X157333733Y-48999048D01*
X157412096Y-48845252D01*
X157513553Y-48705607D01*
X157635607Y-48583553D01*
X157775252Y-48482096D01*
X157929048Y-48403733D01*
X158093210Y-48350393D01*
X158263695Y-48323391D01*
X158436305Y-48323391D01*
X158606790Y-48350393D01*
G37*
G36*
X177606790Y-48350393D02*
G01*
X177770952Y-48403733D01*
X177924748Y-48482096D01*
X178064393Y-48583553D01*
X178186447Y-48705607D01*
X178287904Y-48845252D01*
X178366267Y-48999048D01*
X178419607Y-49163210D01*
X178446609Y-49333695D01*
X178446609Y-49506305D01*
X178419607Y-49676790D01*
X178366267Y-49840952D01*
X178287904Y-49994748D01*
X178186447Y-50134393D01*
X178064393Y-50256447D01*
X177924748Y-50357904D01*
X177770952Y-50436267D01*
X177606790Y-50489607D01*
X177436305Y-50516609D01*
X177263695Y-50516609D01*
X177093210Y-50489607D01*
X176929048Y-50436267D01*
X176775252Y-50357904D01*
X176635607Y-50256447D01*
X176513553Y-50134393D01*
X176412096Y-49994748D01*
X176333733Y-49840952D01*
X176280393Y-49676790D01*
X176253391Y-49506305D01*
X176253391Y-49333695D01*
X176280393Y-49163210D01*
X176333733Y-48999048D01*
X176412096Y-48845252D01*
X176513553Y-48705607D01*
X176635607Y-48583553D01*
X176775252Y-48482096D01*
X176929048Y-48403733D01*
X177093210Y-48350393D01*
X177263695Y-48323391D01*
X177436305Y-48323391D01*
X177606790Y-48350393D01*
G37*
G36*
X239100000Y-50110000D02*
G01*
X235900000Y-50110000D01*
X235900000Y-48110000D01*
X239100000Y-48110000D01*
X239100000Y-50110000D01*
G37*
G36*
X114036742Y-43861601D02*
G01*
X114190687Y-43925367D01*
X114329234Y-44017941D01*
X114447059Y-44135766D01*
X114539633Y-44274313D01*
X114603399Y-44428258D01*
X114635907Y-44591685D01*
X114640000Y-44675000D01*
X114640000Y-46575000D01*
X114635907Y-46658315D01*
X114603399Y-46821742D01*
X114539633Y-46975687D01*
X114447059Y-47114234D01*
X114329234Y-47232059D01*
X114190687Y-47324633D01*
X114036742Y-47388399D01*
X113873315Y-47420907D01*
X113706685Y-47420907D01*
X113543258Y-47388399D01*
X113389313Y-47324633D01*
X113250766Y-47232059D01*
X113132941Y-47114234D01*
X113040367Y-46975687D01*
X112976601Y-46821742D01*
X112944093Y-46658315D01*
X112940000Y-46575000D01*
X112940000Y-44675000D01*
X112944093Y-44591685D01*
X112976601Y-44428258D01*
X113040367Y-44274313D01*
X113132941Y-44135766D01*
X113250766Y-44017941D01*
X113389313Y-43925367D01*
X113543258Y-43861601D01*
X113706685Y-43829093D01*
X113873315Y-43829093D01*
X114036742Y-43861601D01*
G37*
G36*
X116576742Y-43861601D02*
G01*
X116730687Y-43925367D01*
X116869234Y-44017941D01*
X116987059Y-44135766D01*
X117079633Y-44274313D01*
X117143399Y-44428258D01*
X117175907Y-44591685D01*
X117180000Y-44675000D01*
X117180000Y-46575000D01*
X117175907Y-46658315D01*
X117143399Y-46821742D01*
X117079633Y-46975687D01*
X116987059Y-47114234D01*
X116869234Y-47232059D01*
X116730687Y-47324633D01*
X116576742Y-47388399D01*
X116413315Y-47420907D01*
X116246685Y-47420907D01*
X116083258Y-47388399D01*
X115929313Y-47324633D01*
X115790766Y-47232059D01*
X115672941Y-47114234D01*
X115580367Y-46975687D01*
X115516601Y-46821742D01*
X115484093Y-46658315D01*
X115480000Y-46575000D01*
X115480000Y-44675000D01*
X115484093Y-44591685D01*
X115516601Y-44428258D01*
X115580367Y-44274313D01*
X115672941Y-44135766D01*
X115790766Y-44017941D01*
X115929313Y-43925367D01*
X116083258Y-43861601D01*
X116246685Y-43829093D01*
X116413315Y-43829093D01*
X116576742Y-43861601D01*
G37*
G36*
X119116742Y-43861601D02*
G01*
X119270687Y-43925367D01*
X119409234Y-44017941D01*
X119527059Y-44135766D01*
X119619633Y-44274313D01*
X119683399Y-44428258D01*
X119715907Y-44591685D01*
X119720000Y-44675000D01*
X119720000Y-46575000D01*
X119715907Y-46658315D01*
X119683399Y-46821742D01*
X119619633Y-46975687D01*
X119527059Y-47114234D01*
X119409234Y-47232059D01*
X119270687Y-47324633D01*
X119116742Y-47388399D01*
X118953315Y-47420907D01*
X118786685Y-47420907D01*
X118623258Y-47388399D01*
X118469313Y-47324633D01*
X118330766Y-47232059D01*
X118212941Y-47114234D01*
X118120367Y-46975687D01*
X118056601Y-46821742D01*
X118024093Y-46658315D01*
X118020000Y-46575000D01*
X118020000Y-44675000D01*
X118024093Y-44591685D01*
X118056601Y-44428258D01*
X118120367Y-44274313D01*
X118212941Y-44135766D01*
X118330766Y-44017941D01*
X118469313Y-43925367D01*
X118623258Y-43861601D01*
X118786685Y-43829093D01*
X118953315Y-43829093D01*
X119116742Y-43861601D01*
G37*
G36*
X121656742Y-43861601D02*
G01*
X121810687Y-43925367D01*
X121949234Y-44017941D01*
X122067059Y-44135766D01*
X122159633Y-44274313D01*
X122223399Y-44428258D01*
X122255907Y-44591685D01*
X122260000Y-44675000D01*
X122260000Y-46575000D01*
X122255907Y-46658315D01*
X122223399Y-46821742D01*
X122159633Y-46975687D01*
X122067059Y-47114234D01*
X121949234Y-47232059D01*
X121810687Y-47324633D01*
X121656742Y-47388399D01*
X121493315Y-47420907D01*
X121326685Y-47420907D01*
X121163258Y-47388399D01*
X121009313Y-47324633D01*
X120870766Y-47232059D01*
X120752941Y-47114234D01*
X120660367Y-46975687D01*
X120596601Y-46821742D01*
X120564093Y-46658315D01*
X120560000Y-46575000D01*
X120560000Y-44675000D01*
X120564093Y-44591685D01*
X120596601Y-44428258D01*
X120660367Y-44274313D01*
X120752941Y-44135766D01*
X120870766Y-44017941D01*
X121009313Y-43925367D01*
X121163258Y-43861601D01*
X121326685Y-43829093D01*
X121493315Y-43829093D01*
X121656742Y-43861601D01*
G37*
G36*
X124196742Y-43861601D02*
G01*
X124350687Y-43925367D01*
X124489234Y-44017941D01*
X124607059Y-44135766D01*
X124699633Y-44274313D01*
X124763399Y-44428258D01*
X124795907Y-44591685D01*
X124800000Y-44675000D01*
X124800000Y-46575000D01*
X124795907Y-46658315D01*
X124763399Y-46821742D01*
X124699633Y-46975687D01*
X124607059Y-47114234D01*
X124489234Y-47232059D01*
X124350687Y-47324633D01*
X124196742Y-47388399D01*
X124033315Y-47420907D01*
X123866685Y-47420907D01*
X123703258Y-47388399D01*
X123549313Y-47324633D01*
X123410766Y-47232059D01*
X123292941Y-47114234D01*
X123200367Y-46975687D01*
X123136601Y-46821742D01*
X123104093Y-46658315D01*
X123100000Y-46575000D01*
X123100000Y-44675000D01*
X123104093Y-44591685D01*
X123136601Y-44428258D01*
X123200367Y-44274313D01*
X123292941Y-44135766D01*
X123410766Y-44017941D01*
X123549313Y-43925367D01*
X123703258Y-43861601D01*
X123866685Y-43829093D01*
X124033315Y-43829093D01*
X124196742Y-43861601D01*
G37*
G36*
X126736742Y-43861601D02*
G01*
X126890687Y-43925367D01*
X127029234Y-44017941D01*
X127147059Y-44135766D01*
X127239633Y-44274313D01*
X127303399Y-44428258D01*
X127335907Y-44591685D01*
X127340000Y-44675000D01*
X127340000Y-46575000D01*
X127335907Y-46658315D01*
X127303399Y-46821742D01*
X127239633Y-46975687D01*
X127147059Y-47114234D01*
X127029234Y-47232059D01*
X126890687Y-47324633D01*
X126736742Y-47388399D01*
X126573315Y-47420907D01*
X126406685Y-47420907D01*
X126243258Y-47388399D01*
X126089313Y-47324633D01*
X125950766Y-47232059D01*
X125832941Y-47114234D01*
X125740367Y-46975687D01*
X125676601Y-46821742D01*
X125644093Y-46658315D01*
X125640000Y-46575000D01*
X125640000Y-44675000D01*
X125644093Y-44591685D01*
X125676601Y-44428258D01*
X125740367Y-44274313D01*
X125832941Y-44135766D01*
X125950766Y-44017941D01*
X126089313Y-43925367D01*
X126243258Y-43861601D01*
X126406685Y-43829093D01*
X126573315Y-43829093D01*
X126736742Y-43861601D01*
G37*
G36*
X112100000Y-47375000D02*
G01*
X110400000Y-47375000D01*
X110400000Y-43875000D01*
X112100000Y-43875000D01*
X112100000Y-47375000D01*
G37*
%LPD*%
M02*
