%TF.GenerationSoftware,KiCad,Pcbnew,9.0.7*%
%TF.CreationDate,2026-03-04T14:21:47+05:30*%
%TF.ProjectId,XeonPad,58656f6e-5061-4642-9e6b-696361645f70,rev?*%
%TF.SameCoordinates,Original*%
%TF.FileFunction,Profile,NP*%
%FSLAX46Y46*%
G04 Gerber Fmt 4.6, Leading zero omitted, Abs format (unit mm)*
G04 Created by KiCad (PCBNEW 9.0.7) date 2026-03-04 14:21:47*
%MOMM*%
%LPD*%
G01*
G04 APERTURE LIST*
%TA.AperFunction,Profile*%
%ADD10C,0.050000*%
%TD*%
%TA.AperFunction,Profile*%
%ADD11C,0.100000*%
%TD*%
G04 APERTURE END LIST*
D10*
X242000000Y-36900000D02*
X112000000Y-36900000D01*
X247000000Y-65400000D02*
X242000000Y-71900000D01*
X112000000Y-36900000D02*
X107000000Y-43400000D01*
X107000000Y-43400000D02*
X107000000Y-65400000D01*
X240500000Y-71900000D02*
X242000000Y-71900000D01*
X242000000Y-36900000D02*
X247000000Y-43400000D01*
X240500000Y-71900000D02*
X112000000Y-71900000D01*
X247000000Y-43400000D02*
X247000000Y-43610000D01*
X247000000Y-43610000D02*
X247000000Y-65400000D01*
X107000000Y-65400000D02*
X112000000Y-71900000D01*
D11*
%TO.C,D1*%
X202300002Y-67350000D02*
X202300002Y-65944316D01*
X203205549Y-65147159D02*
X204794454Y-65147159D01*
X204794453Y-68147158D02*
X203205549Y-68147158D01*
X205700000Y-65944316D02*
X205700000Y-67350000D01*
X202250517Y-65727438D02*
G75*
G02*
X202300002Y-65944316I-450505J-216876D01*
G01*
X202250517Y-65727438D02*
G75*
G02*
X202953290Y-65078859I450515J216878D01*
G01*
X202300002Y-67350001D02*
G75*
G02*
X202250517Y-67566878I-499990J-1D01*
G01*
X202953290Y-68215455D02*
G75*
G02*
X202250517Y-67566878I-252258J431700D01*
G01*
X202953291Y-68215457D02*
G75*
G02*
X203205549Y-68147158I252261J-431710D01*
G01*
X203205548Y-65147158D02*
G75*
G02*
X202953290Y-65078859I3J500009D01*
G01*
X204794453Y-68147158D02*
G75*
G02*
X205046712Y-68215457I-3J-500012D01*
G01*
X205046712Y-65078860D02*
G75*
G02*
X204794454Y-65147160I-252262J431710D01*
G01*
X205046712Y-65078860D02*
G75*
G02*
X205749484Y-65727438I252258J-431700D01*
G01*
X205700000Y-65944315D02*
G75*
G02*
X205749479Y-65727435I500000J15D01*
G01*
X205749485Y-67566877D02*
G75*
G02*
X205046712Y-68215457I-450514J-216880D01*
G01*
X205749485Y-67566878D02*
G75*
G02*
X205700000Y-67350000I450515J216878D01*
G01*
%TO.C,D4*%
X136050002Y-67350000D02*
X136050002Y-65944316D01*
X136955549Y-65147159D02*
X138544454Y-65147159D01*
X138544453Y-68147158D02*
X136955549Y-68147158D01*
X139450000Y-65944316D02*
X139450000Y-67350000D01*
X136000517Y-65727438D02*
G75*
G02*
X136050002Y-65944316I-450505J-216876D01*
G01*
X136000517Y-65727438D02*
G75*
G02*
X136703290Y-65078859I450515J216878D01*
G01*
X136050002Y-67350001D02*
G75*
G02*
X136000517Y-67566878I-499990J-1D01*
G01*
X136703290Y-68215455D02*
G75*
G02*
X136000517Y-67566878I-252258J431700D01*
G01*
X136703291Y-68215457D02*
G75*
G02*
X136955549Y-68147158I252261J-431710D01*
G01*
X136955548Y-65147158D02*
G75*
G02*
X136703290Y-65078859I3J500009D01*
G01*
X138544453Y-68147158D02*
G75*
G02*
X138796712Y-68215457I-3J-500012D01*
G01*
X138796712Y-65078860D02*
G75*
G02*
X138544454Y-65147160I-252262J431710D01*
G01*
X138796712Y-65078860D02*
G75*
G02*
X139499484Y-65727438I252258J-431700D01*
G01*
X139450000Y-65944315D02*
G75*
G02*
X139499479Y-65727435I500000J15D01*
G01*
X139499485Y-67566877D02*
G75*
G02*
X138796712Y-68215457I-450514J-216880D01*
G01*
X139499485Y-67566878D02*
G75*
G02*
X139450000Y-67350000I450515J216878D01*
G01*
%TO.C,D3*%
X143800002Y-67350000D02*
X143800002Y-65944316D01*
X144705549Y-65147159D02*
X146294454Y-65147159D01*
X146294453Y-68147158D02*
X144705549Y-68147158D01*
X147200000Y-65944316D02*
X147200000Y-67350000D01*
X143750517Y-65727438D02*
G75*
G02*
X143800002Y-65944316I-450505J-216876D01*
G01*
X143750517Y-65727438D02*
G75*
G02*
X144453290Y-65078859I450515J216878D01*
G01*
X143800002Y-67350001D02*
G75*
G02*
X143750517Y-67566878I-499990J-1D01*
G01*
X144453290Y-68215455D02*
G75*
G02*
X143750517Y-67566878I-252258J431700D01*
G01*
X144453291Y-68215457D02*
G75*
G02*
X144705549Y-68147158I252261J-431710D01*
G01*
X144705548Y-65147158D02*
G75*
G02*
X144453290Y-65078859I3J500009D01*
G01*
X146294453Y-68147158D02*
G75*
G02*
X146546712Y-68215457I-3J-500012D01*
G01*
X146546712Y-65078860D02*
G75*
G02*
X146294454Y-65147160I-252262J431710D01*
G01*
X146546712Y-65078860D02*
G75*
G02*
X147249484Y-65727438I252258J-431700D01*
G01*
X147200000Y-65944315D02*
G75*
G02*
X147249479Y-65727435I500000J15D01*
G01*
X147249485Y-67566877D02*
G75*
G02*
X146546712Y-68215457I-450514J-216880D01*
G01*
X147249485Y-67566878D02*
G75*
G02*
X147200000Y-67350000I450515J216878D01*
G01*
%TO.C,D2*%
X210050002Y-67350000D02*
X210050002Y-65944316D01*
X210955549Y-65147159D02*
X212544454Y-65147159D01*
X212544453Y-68147158D02*
X210955549Y-68147158D01*
X213450000Y-65944316D02*
X213450000Y-67350000D01*
X210000517Y-65727438D02*
G75*
G02*
X210050002Y-65944316I-450505J-216876D01*
G01*
X210000517Y-65727438D02*
G75*
G02*
X210703290Y-65078859I450515J216878D01*
G01*
X210050002Y-67350001D02*
G75*
G02*
X210000517Y-67566878I-499990J-1D01*
G01*
X210703290Y-68215455D02*
G75*
G02*
X210000517Y-67566878I-252258J431700D01*
G01*
X210703291Y-68215457D02*
G75*
G02*
X210955549Y-68147158I252261J-431710D01*
G01*
X210955548Y-65147158D02*
G75*
G02*
X210703290Y-65078859I3J500009D01*
G01*
X212544453Y-68147158D02*
G75*
G02*
X212796712Y-68215457I-3J-500012D01*
G01*
X212796712Y-65078860D02*
G75*
G02*
X212544454Y-65147160I-252262J431710D01*
G01*
X212796712Y-65078860D02*
G75*
G02*
X213499484Y-65727438I252258J-431700D01*
G01*
X213450000Y-65944315D02*
G75*
G02*
X213499479Y-65727435I500000J15D01*
G01*
X213499485Y-67566877D02*
G75*
G02*
X212796712Y-68215457I-450514J-216880D01*
G01*
X213499485Y-67566878D02*
G75*
G02*
X213450000Y-67350000I450515J216878D01*
G01*
%TD*%
M02*
